<?xml version="1.0" encoding="UTF-8"?><svg xmlns="http://www.w3.org/2000/svg" width="100%" height="100%"><defs><font id="web" horiz-adv-x="1239"><!--



NOTICE: This font software is the valuable property 
of Webtype LLC, The Font Bureau, Webtype and/or its 
suppliers and its use by you is covered under the terms 
of the Web Font license agreement between you and Webtype 
LLC. You may ONLY use this font software with the licensed 
web site. Except as specifically permitted by the license, 
you may not copy this font software. If you have any 
questions, please contact Webtype.com. 

For more information, please visit http://www.webtype.com/store/license/?id=23

Licensed to: slice.ca

Serial number: SH-1457
--><font-face font-family="" units-per-em="2048" panose-1="2 0 5 5 3 0 0 2 0 4" ascent="2144" descent="-492" alphabetic="0"/><missing-glyph horiz-adv-x="569"/><glyph unicode=" " horiz-adv-x="569"/><glyph unicode="!" horiz-adv-x="592" d="M430 1618L399 428H190L160 1618H430ZM418 0H172V305H418V0Z"/><glyph unicode="&quot;" horiz-adv-x="883" d="M778 1618L766 907H555L543 1618H778ZM336 1618L322 907H115L102 1618H336Z"/><glyph unicode="#" horiz-adv-x="1161" d="M1120 1075L1098 907H862Q843 824 817 659H1069L1049 494H793L715 -43H584L662 494H403L324 -43H195L272 494H37L61 659H295Q321 824 340 907H88L111 1075H367Q388 1191 440 1575H571L498 1075H758Q773 1139 829 1575H963Q918 1250 889 1075H1120ZM729 907H471L428 659H688Q712 833 729 907Z"/><glyph unicode="$" horiz-adv-x="1399" d="M631 8Q471 17 364 49T189 141T91 286T61 465H285L287 441Q294 346 330 294T437 215T631 184V756Q437 806 314 865T135 1006T78 1212Q78 1399 217 1494T631 1599V1655H758V1597Q972 1588 1094 1512T1264 1278Q1277 1238 1282 1137H1059L1060 1152Q1060 1199 1042 1249Q1017 1329 947 1368T758 1411V922L858 893Q1039 840 1136 781T1277 642T1321 430Q1321 241 1177 132T758 8V-104H631V8ZM631 1421Q460 1415 379 1367T297 1212Q297 1125 369 1067T631 956V1421ZM758 180Q925 188 1009 251T1094 422Q1094 540 1021 604T758 721V180Z"/><glyph unicode="%" horiz-adv-x="2079" d="M987 1184Q987 1080 929 989T770 846T541 795Q410 795 308 846T148 988T90 1184V1255Q90 1370 143 1459T299 1596T539 1645Q676 1645 777 1594T932 1453T987 1255V1184ZM1597 1587L590 0H444L1452 1587H1597ZM1982 373Q1982 195 1862 89T1532 -18Q1401 -18 1300 33T1142 175T1085 373V442Q1085 549 1141 640T1298 782T1534 834Q1666 834 1767 781T1925 637T1982 442V373ZM803 1190V1249Q803 1309 769 1363T674 1449T539 1481Q415 1481 344 1419T272 1249V1190Q272 1128 306 1074T402 988T539 956Q618 956 677 987T770 1073T803 1190ZM1800 381V438Q1800 498 1767 552T1673 638T1534 670Q1411 670 1340 605T1268 438V381Q1268 321 1303 265T1398 177T1534 145Q1657 145 1728 209T1800 381Z"/><glyph unicode="&amp;" horiz-adv-x="1700" d="M748 750Q903 597 1198 379Q1338 524 1348 739H1565Q1559 452 1362 244Q1485 147 1679 0H1339L1184 111Q1076 48 946 16T682 -16Q350 -16 194 79T38 372L39 416Q41 531 140 632T422 805Q337 909 295 1004T250 1210V1276Q251 1377 310 1460T472 1588T705 1634Q821 1634 913 1588T1059 1462T1122 1282V1221Q1115 938 748 750ZM621 895Q891 1030 895 1204V1245Q890 1328 837 1380T694 1432Q596 1432 537 1382T469 1237V1198Q475 1065 621 895ZM551 649Q403 583 338 520T272 389Q272 284 369 232T672 180Q867 180 1008 256Q707 489 551 649Z"/><glyph unicode="'" horiz-adv-x="627" d="M434 1618L420 891H205L190 1618H434Z"/><glyph unicode="(" horiz-adv-x="700" d="M678 -141H440Q328 -32 244 116T119 423T78 739Q78 902 125 1068T260 1385T440 1618H678Q582 1523 500 1374T371 1058T324 735Q324 569 370 406T495 101T678 -141Z"/><glyph unicode=")" horiz-adv-x="700" d="M637 739Q637 487 540 254T276 -141H39Q140 -42 220 99T346 405T393 735Q393 891 346 1057T218 1372T39 1618H276Q370 1536 459 1381T592 1061T637 739Z"/><glyph unicode="*" horiz-adv-x="1182" d="M657 1296L954 1438L1016 1262L700 1149L940 885L799 768L584 1061L377 770L233 889L465 1149L143 1262L203 1438L508 1296L494 1640H672L657 1296Z"/><glyph unicode="+" horiz-adv-x="1208" d="M1118 662H707V279H500V662H88V874H500V1249H709V874H1118V662Z"/><glyph unicode="," horiz-adv-x="645" d="M449 -6L317 -215L170 -193L266 4L244 0H186V328H449V-6Z"/><glyph unicode="-" horiz-adv-x="944" d="M911 643H35V868H911V643Z"/><glyph unicode="." horiz-adv-x="645" d="M459 0H182V328H459V0Z"/><glyph unicode="/" horiz-adv-x="621" d="M666 1632L63 -328H-70L530 1632H666Z"/><glyph unicode="0" horiz-adv-x="1411" d="M709 1636Q866 1636 988 1589T1189 1453T1302 1240T1335 809Q1335 634 1311 471T1212 199T1012 36T707 -18Q560 -18 454 13T275 108T157 275T95 512T78 811Q78 1054 99 1177T168 1381T291 1518T471 1605T709 1636ZM1090 811Q1090 890 1085 1004T1067 1176Q1042 1295 949 1361T707 1427Q554 1427 460 1361T342 1176Q322 1060 322 809Q322 679 334 556T372 370T444 267T556 206T709 186Q996 186 1061 432Q1071 471 1080 590T1090 811Z"/><glyph unicode="1" horiz-adv-x="958" d="M729 0H496V1341L90 1276V1468Q325 1506 425 1540T549 1626H729V0Z"/><glyph unicode="2" horiz-adv-x="1335" d="M1294 0H63V209Q465 434 639 569T900 837T989 1120V1163Q987 1289 901 1356T655 1423Q491 1423 402 1350T313 1146V1102H78V1132Q78 1201 82 1229Q98 1355 172 1446T373 1587T676 1636Q942 1636 1089 1525T1247 1206L1248 1186L1245 1114Q1235 882 1032 657T430 207H1294V0Z"/><glyph unicode="3" horiz-adv-x="1372" d="M985 866Q1073 856 1153 798T1272 656T1311 457Q1311 228 1145 105T674 -18Q524 -18 415 10T235 95T118 248T72 500H309Q309 418 322 366T380 267T499 199T678 176Q800 176 886 210T1016 312T1060 467Q1060 547 1022 615T913 710T717 737H395V936H700Q806 936 865 957T964 1038T1004 1177Q1004 1255 967 1316T857 1405T684 1432Q573 1432 497 1401T387 1307T352 1130H127Q127 1286 165 1373T276 1518T452 1606T696 1636Q879 1636 998 1589T1178 1448T1239 1220Q1239 1129 1207 1063T1116 941T985 866Z"/><glyph unicode="4" horiz-adv-x="1341" d="M1329 373H1081V0H854V373H37V600L846 1632H1081V580H1329V373ZM854 580V1331L272 580H854Z"/><glyph unicode="5" horiz-adv-x="1376" d="M700 -18Q163 -18 94 365Q86 407 86 498H319Q319 387 361 323T483 223T680 188Q873 188 964 275T1055 549Q1055 730 968 813T702 897Q448 897 365 727H131V1616H1214V1399H344V922Q388 1004 502 1053T756 1102Q1311 1102 1311 555Q1311 279 1151 131T700 -18Z"/><glyph unicode="6" horiz-adv-x="1376" d="M719 -18Q491 -18 353 62T149 311T82 811Q82 1074 111 1206Q153 1414 301 1525T694 1636Q928 1636 1063 1564T1239 1341Q1251 1302 1257 1210H1028L1024 1240Q1018 1292 980 1337T872 1405T692 1427Q537 1427 444 1352T334 1137Q317 1012 317 883Q383 956 515 1002T801 1049Q957 1049 1071 991T1247 817T1308 511Q1308 359 1266 266T1147 108T965 13T719 -18ZM1074 514Q1074 641 1035 713T919 818T729 852Q626 852 542 826T397 758T319 676Q324 482 361 383T485 232T715 180Q838 180 918 218T1036 323T1074 514Z"/><glyph unicode="7" horiz-adv-x="1155" d="M1141 1411L451 0H197L901 1401H8V1618H1141V1411Z"/><glyph unicode="8" horiz-adv-x="1364" d="M680 -18Q379 -18 220 112T61 476Q62 584 104 670T235 817T416 885Q360 887 296 937T192 1059T151 1237Q151 1431 292 1535T680 1640Q919 1640 1064 1537T1209 1240Q1209 1129 1168 1058T1063 937T940 885Q1029 879 1117 822T1251 679T1300 476Q1300 245 1143 114T680 -18ZM997 1208Q997 1326 910 1385T680 1444Q535 1444 448 1385T360 1210Q360 1139 391 1083T491 1000T680 973Q848 973 922 1029T997 1208ZM1081 473Q1081 618 983 699T680 780Q482 780 381 701T279 481Q279 330 384 253T680 176Q863 176 970 250T1081 473Z"/><glyph unicode="9" horiz-adv-x="1376" d="M633 -18Q427 -18 292 65T129 281Q119 333 119 408H340Q340 295 419 242T682 188Q835 188 929 265T1040 479Q1049 544 1057 729Q986 648 869 607T602 565Q483 565 385 602T216 707T114 866T81 1096Q81 1217 102 1286Q157 1456 301 1546T674 1636Q889 1636 1026 1554T1227 1303T1292 807Q1292 536 1264 412Q1212 192 1058 87T633 -18ZM1055 942Q1047 1224 958 1333T676 1442Q567 1442 484 1404T357 1294T313 1109Q313 929 398 848T657 766Q758 766 839 791T978 858T1055 942Z"/><glyph unicode=":" horiz-adv-x="641" d="M449 815H199V1114H449V815ZM449 0H199V299H449V0Z"/><glyph unicode=";" horiz-adv-x="641" d="M449 815H201V1114H449V815ZM451 -6L295 -219L186 -150L276 8L250 0H199V303H451V-6Z"/><glyph unicode="&lt;" horiz-adv-x="1253" d="M1135 469V238L100 643V848L1135 1253V1018L360 745L1135 469Z"/><glyph unicode="=" horiz-adv-x="1198" d="M1128 842H72V1051H1128V842ZM1128 463H72V672H1128V463Z"/><glyph unicode="&gt;" horiz-adv-x="1253" d="M106 238V467L881 743L106 1018V1251L1141 848V641L106 238Z"/><glyph unicode="?" horiz-adv-x="1231" d="M668 428H457Q457 546 487 635T574 790T790 957Q868 1007 906 1067T944 1204Q944 1330 864 1384T610 1438Q438 1438 355 1373T272 1157H45Q45 1335 109 1437T305 1589T633 1638Q917 1638 1056 1538T1196 1227Q1196 1138 1173 1075T1113 965T1029 884T932 818T835 753T750 676T691 573T668 428ZM688 0H440V305H688V0Z"/><glyph unicode="@" horiz-adv-x="1958" d="M1423 236Q1327 236 1270 292T1212 431V442Q1165 353 1058 297T829 240Q671 240 578 339T484 605Q484 762 550 896T733 1104T997 1178Q1094 1178 1166 1132T1264 1014L1300 1141L1477 1143Q1453 1031 1397 788T1349 525Q1349 379 1475 379Q1608 379 1683 508T1759 854Q1759 1156 1574 1327T1055 1499Q802 1499 608 1395T308 1097T202 643Q202 409 289 239T545 -22T938 -113Q1131 -113 1290 -60T1561 94L1618 14Q1485 -99 1316 -152T934 -205Q677 -205 483 -102T185 195T81 648Q81 932 203 1145T550 1473T1063 1589Q1278 1589 1436 1526T1697 1353T1842 1111T1885 843Q1885 663 1828 524T1666 311T1423 236ZM1226 859Q1226 904 1199 945T1125 1011T1020 1036Q924 1036 844 983T715 833T666 617Q666 519 716 453T883 387Q999 387 1074 448T1178 625Q1181 639 1187 665T1200 723T1214 787T1225 844L1226 859Z"/><glyph unicode="A" horiz-adv-x="1511" d="M399 408L246 0H2L623 1618H918L1507 0H1260L1112 408H399ZM1038 616L809 1253L766 1393L721 1251L477 616H1038Z"/><glyph unicode="B" horiz-adv-x="1589" d="M1044 0H176V1618H975Q1172 1618 1290 1515T1409 1219Q1409 1147 1391 1082T1342 966T1266 882T1176 840Q1265 829 1347 772T1464 629T1499 432Q1499 228 1377 114T1044 0ZM1161 1167Q1161 1238 1134 1297T1052 1384T915 1413H410V915H965Q1052 915 1106 984T1161 1167ZM1251 451Q1251 578 1183 643T995 709H410V207H991Q1251 207 1251 451Z"/><glyph unicode="C" horiz-adv-x="1579" d="M1511 575Q1497 389 1414 257T1181 52T825 -20Q563 -20 404 68T164 340T84 815Q84 1239 260 1439T815 1640Q1468 1640 1509 1030H1266Q1251 1236 1140 1326T811 1417Q557 1417 445 1275T332 811Q332 493 448 342T821 190Q1022 190 1135 288T1270 575H1511Z"/><glyph unicode="D" horiz-adv-x="1567" d="M850 0H176V1618H831Q1009 1618 1144 1576T1352 1444T1456 1216T1487 834Q1487 502 1427 338T1221 87T850 0ZM1245 831Q1245 1207 1140 1303T797 1399H412V217H795Q927 217 1021 248T1161 343T1225 532T1245 831Z"/><glyph unicode="E" horiz-adv-x="1409" d="M1305 0H176V1618H1296V1401H410V924H1262V705H410V217H1305V0Z"/><glyph unicode="F" horiz-adv-x="1358" d="M1288 1401H414V924H1243V705H414V0H176V1618H1288V1401Z"/><glyph unicode="G" horiz-adv-x="1554" d="M1460 0H1266L1253 197Q1183 87 1057 34T766 -20Q414 -20 249 185T84 809Q84 1229 263 1434T795 1640Q1110 1640 1280 1493T1450 1073H1219Q1219 1425 803 1425Q630 1425 529 1361T378 1161T328 803Q328 575 375 441T525 245T807 182Q963 182 1077 252T1235 451Q1239 471 1239 571V684H719V893H1458V329L1460 20V0Z"/><glyph unicode="H" horiz-adv-x="1612" d="M1436 0H1200V700H414V0H176V1618H414V924H1200V1618H1436V0Z"/><glyph unicode="I" horiz-adv-x="596" d="M418 0H176V1618H418V0Z"/><glyph unicode="J" horiz-adv-x="1038" d="M879 444Q879 218 760 101T403 -16Q245 -16 152 -4T27 25V229Q185 193 350 193Q466 193 526 222T613 319T641 500V1618H879V444Z"/><glyph unicode="K" horiz-adv-x="1466" d="M1458 0H1165L567 756L414 596V0H176V1618H414V877L1157 1618H1444L743 911L1458 0Z"/><glyph unicode="L" horiz-adv-x="1286" d="M1247 0H176V1618H416V215H1247V0Z"/><glyph unicode="M" horiz-adv-x="1935" d="M1761 0H1538V1245L1085 0H840L399 1245V0H176V1618H506L967 305L1440 1618H1761V0Z"/><glyph unicode="N" horiz-adv-x="1591" d="M1421 0H1157L403 1268V0H176V1618H461L1194 373V1618H1421V0Z"/><glyph unicode="O" horiz-adv-x="1618" d="M809 1640Q1060 1640 1222 1545T1459 1273T1534 817Q1534 412 1362 196T809 -20Q561 -20 405 71T166 349T84 813Q84 1096 163 1273T406 1545T809 1640ZM811 188Q915 188 998 215T1155 311Q1294 450 1294 811Q1294 980 1261 1106T1169 1294Q1092 1369 1008 1398T809 1427Q696 1427 615 1400T464 1305T362 1108T328 809Q328 609 377 470T531 260T811 188Z"/><glyph unicode="P" horiz-adv-x="1505" d="M1423 1100Q1423 908 1374 800T1218 642T936 586H414V0H176V1618H950Q1114 1618 1210 1572T1364 1411T1423 1100ZM1182 1096Q1182 1176 1171 1230T1123 1327T1034 1386T905 1403H414V799H891Q972 799 1029 816T1122 870T1170 960T1182 1096Z"/><glyph unicode="Q" horiz-adv-x="1618" d="M1063 31Q1088 7 1183 -45T1333 -104L1202 -285Q1113 -264 977 -180T770 -14L739 -15Q587 -15 457 43T244 215T122 471T84 813Q84 1010 120 1145T245 1402T477 1582T809 1640Q996 1640 1127 1593T1353 1441T1491 1189T1534 817Q1534 681 1512 556T1449 337T1342 182T1203 82T1063 31ZM811 186Q932 186 1022 221T1171 324T1262 516T1294 811Q1294 1026 1248 1156T1092 1358T809 1430Q717 1430 643 1408T502 1335T400 1209T346 1035T328 809Q328 651 360 527T450 332T598 224T811 186Z"/><glyph unicode="R" horiz-adv-x="1563" d="M1405 1155Q1405 972 1336 865T1139 737L1516 0H1247L911 686H410V0H176V1618H961Q1187 1618 1296 1498T1405 1155ZM1163 1135Q1163 1259 1138 1307T1057 1380T909 1405H412V891H952Q994 891 1029 899T1089 924T1130 963T1154 1040T1163 1135Z"/><glyph unicode="S" horiz-adv-x="1522" d="M1423 463Q1423 227 1262 104T791 -20Q634 -20 518 4T321 74T188 189T117 338T96 479H340Q340 449 353 399T401 306T487 237T614 196T788 182Q1178 182 1178 424Q1178 539 1104 600T819 707L580 754Q330 802 221 909T111 1202Q111 1408 274 1522T729 1636Q890 1636 1009 1607T1212 1518T1346 1365T1397 1159H1153Q1153 1218 1139 1251Q1092 1351 1000 1391T731 1432Q356 1432 356 1217Q356 1109 435 1053T721 956L952 911Q1193 868 1308 757T1423 463Z"/><glyph unicode="T" horiz-adv-x="1327" d="M1321 1403H784V0H543V1403H8V1618H1321V1403Z"/><glyph unicode="U" horiz-adv-x="1583" d="M1427 457Q1427 232 1260 107T793 -18Q480 -18 317 107T154 471V1618H391V489Q391 346 493 267T799 188Q976 188 1083 269T1190 487V1618H1427V457Z"/><glyph unicode="V" horiz-adv-x="1516" d="M1511 1618L901 0H612L0 1618H254L762 256L1268 1618H1511Z"/><glyph unicode="W" horiz-adv-x="2146" d="M2146 1618L1681 0H1407L1077 1311L739 0H465L0 1618H254L618 303L944 1618H1227L1552 303L1921 1618H2146Z"/><glyph unicode="X" horiz-adv-x="1421" d="M713 635L266 0H2L584 823L43 1618H315L721 1018L1147 1618H1403L850 831L1415 0H1145L713 635Z"/><glyph unicode="Y" horiz-adv-x="1518" d="M1516 1618L868 547V0H627V545L4 1618H262L750 762L1268 1618H1516Z"/><glyph unicode="Z" horiz-adv-x="1350" d="M1305 0H66V195L985 1401H109V1618H1278V1430L346 213H1305V0Z"/><glyph unicode="[" horiz-adv-x="836" d="M745 -356H166V1618H745V1444H377V-184H745V-356Z"/><glyph unicode="\" horiz-adv-x="621" d="M-45 1632H90L692 -328H557L-45 1632Z"/><glyph unicode="]" horiz-adv-x="854" d="M104 -356V-184H471V1446H104V1618H682V-356H104Z"/><glyph unicode="^" horiz-adv-x="1247" d="M633 1460L207 1073L66 1208L522 1632H741L1198 1208L1057 1073L633 1460Z"/><glyph unicode="_" horiz-adv-x="936" d="M934 -367H0V-170H934V-367Z"/><glyph unicode="`" horiz-adv-x="897" d="M629 1221H418L186 1513H426L629 1221Z"/><glyph unicode="a" horiz-adv-x="1303" d="M1194 0H989Q980 0 973 44T965 127V143Q843 -12 522 -12Q320 -12 204 65T84 281V342Q89 451 157 528T355 648T695 691Q817 691 961 676V703Q961 805 946 845T896 912T805 952T668 965Q499 965 425 908T350 748H139Q139 823 172 902T275 1038T439 1123T664 1151Q893 1151 1024 1072T1167 846Q1173 710 1175 619L1171 304V233Q1171 154 1178 86T1194 0ZM967 514Q848 529 757 529Q519 529 412 481T305 334Q305 270 334 236T428 181T582 160Q923 160 958 401Q967 462 967 514Z"/><glyph unicode="b" horiz-adv-x="1386" d="M776 1151Q946 1151 1062 1087T1244 896T1309 582Q1309 389 1241 258T1050 59T760 -10Q468 -10 358 150L350 0H139V1632H358V952Q392 1041 507 1096T776 1151ZM721 958Q549 958 450 861T350 549Q350 463 363 413T407 316T483 239T587 191T719 174Q842 174 929 225T1053 351T1090 567Q1090 713 1053 785T929 908T721 958Z"/><glyph unicode="c" horiz-adv-x="1305" d="M1233 705H1016Q1016 761 986 820T874 916T670 954Q537 954 453 906T332 775T295 563Q295 424 333 342T456 216T676 172Q818 172 913 233T1020 406H1233Q1226 282 1160 185T971 35T670 -18Q470 -18 339 51T140 247T72 567Q72 854 236 1003T688 1153Q828 1153 932 1117T1110 1006T1208 858T1233 705Z"/><glyph unicode="d" horiz-adv-x="1368" d="M610 1141Q916 1141 1016 985V1624H1237V127Q1237 88 1245 0H1038L1018 152Q963 68 859 25T612 -18Q453 -18 333 44T142 236T72 553Q72 677 103 777T200 958T377 1090T610 1141ZM670 948Q492 948 393 846T293 557Q293 440 329 354T447 216T664 164Q798 164 877 219T990 359T1024 555Q1024 675 994 757T884 894T670 948Z"/><glyph unicode="e" horiz-adv-x="1303" d="M1237 352Q1237 267 1155 168T952 25T670 -20Q482 -20 350 48T145 244T72 569Q72 844 235 998T664 1153Q933 1153 1090 1005T1248 573Q1248 528 1243 483H289Q293 385 344 312T481 202T672 166Q775 166 855 191T979 264T1022 352H1237ZM1024 653Q1024 758 984 821T863 924T664 963Q550 963 467 921T341 816T291 653H1024Z"/><glyph unicode="f" horiz-adv-x="817" d="M795 936H459V0H236V936H31V1126H236V1333Q236 1475 337 1560T618 1645Q688 1645 801 1632V1438Q731 1452 629 1452Q547 1452 503 1410T459 1284V1126H795V936Z"/><glyph unicode="g" horiz-adv-x="1247" d="M604 1157Q722 1157 820 1132T983 1061Q1017 1094 1093 1114T1251 1136L1276 1135V969Q1204 969 1148 961T1075 938Q1097 913 1113 855T1130 737Q1125 561 991 460T614 358Q540 358 462 376T332 422Q307 419 291 400T274 352Q274 318 307 301T409 276T600 268H657Q867 268 996 238T1187 146T1249 -25Q1249 -191 1096 -267T627 -344Q318 -344 177 -280T35 -74Q35 -4 83 54T225 147Q171 153 130 203T88 309Q88 364 124 412T219 475Q166 506 131 575T94 713L93 770Q93 946 234 1051T604 1157ZM610 973Q537 973 480 956T384 910T326 843T306 744Q306 667 341 621T444 550T608 524Q875 524 911 715L914 748L911 784Q884 973 610 973ZM618 -176Q1032 -176 1032 -29Q1032 21 998 45T881 81T657 96L399 102Q321 90 277 55T233 -29Q233 -176 618 -176Z"/><glyph unicode="h" horiz-adv-x="1311" d="M1194 0H969Q963 0 963 98V705Q963 824 891 885T680 946Q540 946 450 873T360 686V0H139V1632H356V961Q394 1047 498 1098T758 1149Q965 1149 1074 1044T1184 745V434Q1184 291 1185 176T1187 32T1194 0Z"/><glyph unicode="i" horiz-adv-x="510" d="M373 1270H137V1524H373V1270ZM377 0H158Q143 8 143 102V1126H367V109Q367 10 377 0Z"/><glyph unicode="j" horiz-adv-x="524" d="M389 1270H154V1524H389V1270ZM383 -39Q383 -208 303 -295T61 -383Q11 -383 -39 -379T-100 -369V-184Q-67 -190 -10 -190Q160 -190 160 -8V1126H383V-39Z"/><glyph unicode="k" horiz-adv-x="1212" d="M1219 0H969L604 594L360 367V0H139V1632H360V610L911 1126H1176L762 737L1219 0Z"/><glyph unicode="l" horiz-adv-x="496" d="M365 0H145Q139 3 139 76V1513Q139 1604 133 1632H352Q358 1610 358 1532V104Q358 11 365 0Z"/><glyph unicode="m" horiz-adv-x="1960" d="M1626 0Q1621 0 1620 17T1618 73T1617 219T1616 416V713Q1616 839 1556 893T1364 948Q1244 948 1169 882T1094 707V0H885V729Q885 832 823 890T639 948Q561 948 497 915T397 823T360 700V0H139V1126H354V954Q390 1039 494 1094T729 1149Q854 1149 942 1099T1061 948Q1098 1042 1195 1095T1440 1149Q1625 1149 1722 1053T1819 782V456Q1819 304 1820 180T1823 28T1831 0H1626Z"/><glyph unicode="n" horiz-adv-x="1311" d="M1190 0H975Q969 0 967 25T964 148T963 409V698Q963 817 893 881T684 946Q540 946 450 874T360 684V0H139V1126H352V950Q393 1046 502 1097T766 1149Q968 1149 1076 1047T1184 748V224Q1184 137 1184 82T1186 14T1190 0Z"/><glyph unicode="o" horiz-adv-x="1352" d="M1282 567Q1282 386 1206 253T997 50T678 -20Q489 -20 355 47T146 249T72 567Q72 831 233 992T680 1153Q964 1153 1123 999T1282 567ZM1065 565Q1065 710 1028 790T900 914T678 958Q552 958 466 911T337 783T293 565Q293 355 394 262T680 168Q870 168 967 270T1065 565Z"/><glyph unicode="p" horiz-adv-x="1372" d="M1307 578Q1307 305 1163 148T756 -10Q629 -10 516 30T360 139V-354H139V1126H358V942Q389 1035 506 1093T780 1151Q1022 1151 1164 1007T1307 578ZM1081 563Q1081 698 1046 779T924 908T713 956Q598 956 515 910T393 783T354 563Q354 427 394 347T516 221T715 176Q886 176 983 267T1081 563Z"/><glyph unicode="q" horiz-adv-x="1366" d="M1239 -354H1028L1018 -338V160Q973 81 870 34T618 -14Q453 -14 330 52T141 247T74 549Q74 733 143 867T340 1074T614 1147Q916 1147 1026 967V1126H1231V-207Q1231 -318 1239 -354ZM1022 561Q1022 767 924 857T672 948Q503 948 400 851T297 559Q297 373 392 272T664 170Q781 170 868 223T989 362T1022 561Z"/><glyph unicode="r" horiz-adv-x="969" d="M952 1128V901Q851 934 700 934Q551 934 457 840T362 592V0H139V1126H358V934Q381 1026 490 1088T741 1151Q872 1151 952 1128Z"/><glyph unicode="s" horiz-adv-x="1255" d="M1171 330Q1171 152 1044 67T653 -18Q383 -18 255 37T98 221Q88 265 88 338H307Q307 273 323 245T378 199T489 173T655 164Q813 164 883 198T954 311Q954 373 902 407T680 469L451 506Q258 537 177 613T96 831Q96 982 229 1067T604 1153Q824 1153 948 1098T1112 928Q1128 874 1128 791H913V806Q913 861 892 886T833 928T737 953T598 963Q456 963 385 932T313 831Q313 775 360 746T549 692L788 657Q994 627 1082 552T1171 330Z"/><glyph unicode="t" horiz-adv-x="797" d="M758 936H414V344Q414 255 450 219T590 182Q630 182 679 186T745 195V8Q673 -12 508 -12Q190 -12 190 276V936H0V1126H186Q190 1137 193 1220T197 1366L410 1368V1126H758V936Z"/><glyph unicode="u" horiz-adv-x="1305" d="M1180 0H965L958 143Q911 65 810 24T561 -18Q359 -18 244 83T129 360V889Q129 1126 125 1126H348Q352 1126 352 914V424Q352 294 427 232T653 170Q788 170 870 236T952 408V1126H1174V188Q1174 111 1175 57T1180 0Z"/><glyph unicode="v" horiz-adv-x="1272" d="M1255 1126L770 0H500L16 1126H258L641 201L1030 1126H1255Z"/><glyph unicode="w" horiz-adv-x="1974" d="M1970 1126L1550 0H1288Q1004 791 1004 811Q998 820 991 897L979 811Q979 801 893 555T696 0H432L16 1126H248L573 203L874 1126H1122L1430 203L1751 1126H1970Z"/><glyph unicode="x" horiz-adv-x="1206" d="M614 725L948 1126H1190L733 580L1200 0H946L604 424L250 0H8L485 571L37 1126H291L614 725Z"/><glyph unicode="y" horiz-adv-x="1272" d="M1255 1126L598 -354H365L522 0L16 1126H256L448 675L641 219L763 509L1026 1126H1255Z"/><glyph unicode="z" horiz-adv-x="1116" d="M1069 0H63V174L762 936H78V1126H1038V946L326 188H1069V0Z"/><glyph unicode="{" horiz-adv-x="938" d="M852 -336H653Q499 -336 415 -261T330 -51Q330 26 345 175Q360 323 360 397Q360 637 100 637V813Q233 815 297 869T362 1038Q362 1092 346 1184Q330 1276 330 1341Q330 1467 418 1542T649 1618H852V1442L783 1445Q658 1445 596 1401T534 1266Q534 1229 548 1128Q559 1039 559 993Q559 882 504 813T344 733Q447 724 503 653T559 461Q559 402 538 137L532 22Q532 -159 777 -159L852 -156V-336Z"/><glyph unicode="|" horiz-adv-x="645" d="M412 -410H236V1638H412V-410Z"/><glyph unicode="}" horiz-adv-x="938" d="M84 -336V-156L159 -159Q281 -159 342 -116T403 21V33L389 249Q377 395 377 461Q377 582 433 653T592 733Q487 744 432 813T377 993Q377 1029 398 1195L403 1261Q403 1356 342 1400T154 1445L84 1442V1618H287Q432 1618 519 1542T606 1341Q606 1281 591 1184Q575 1086 575 1038Q575 926 638 871T836 813V637Q578 637 578 397Q578 341 592 175Q606 8 606 -51Q606 -185 523 -260T283 -336H84Z"/><glyph unicode="~" horiz-adv-x="1243" d="M352 860Q201 860 195 565L16 567Q16 813 100 937T342 1061Q427 1061 497 1019T647 872L700 802Q793 674 887 674Q964 674 1009 742T1057 940L1221 936Q1217 710 1135 596T901 481Q797 481 718 532T544 719Q496 789 449 824T352 860Z"/><glyph unicode=" " horiz-adv-x="285"/><glyph unicode="¡" horiz-adv-x="592" d="M170 1622H418V1317H170V1622ZM160 -14L188 1192H401L428 -14H160Z"/><glyph unicode="¢" horiz-adv-x="1286" d="M602 1382V1524H745V1382Q1087 1361 1198 1143Q1231 1077 1247 944H1034Q1023 1035 1001 1077T943 1150T859 1198T745 1225V381Q824 389 885 421T987 506T1036 645H1247Q1239 566 1211 494T1115 362T955 268T745 227V57H602V227Q337 249 208 392T78 805Q78 1075 206 1219T602 1382ZM602 1221Q509 1207 447 1166T345 1029T305 803Q305 702 329 613T423 461T602 383V1221Z"/><glyph unicode="£" horiz-adv-x="1405" d="M270 803L233 884Q154 1052 154 1226V1259L156 1286Q174 1458 316 1547T702 1636Q965 1636 1105 1541T1268 1239L1272 1063H1030V1151L1028 1231Q998 1434 713 1434Q635 1434 579 1417T486 1370T431 1302T412 1195L414 1139Q419 1016 481 880L514 803H1100V621H569Q592 527 592 483Q588 359 539 291T389 186H1296V0H113V199Q204 234 257 277T334 379T357 500Q357 534 332 621H123V803H270Z"/><glyph unicode="¤" horiz-adv-x="1152" d="M1056 392L940 284L740 500Q668 452 572 452Q480 452 408 500L208 284L92 392L300 608Q272 648 262 686T252 780Q252 883 300 952L92 1168L208 1276L408 1060Q480 1108 572 1108Q668 1108 740 1060L944 1276L1060 1156L852 952Q880 912 890 872T900 780Q900 684 848 608L1056 392ZM748 780Q748 860 698 910T572 960Q496 960 448 910T400 780Q400 700 450 652T572 604Q652 604 700 652T748 780Z"/><glyph unicode="¥" horiz-adv-x="1554" d="M649 371H104V506H649V571L4 1618H264Q449 1323 565 1132T724 862T768 774Q768 785 818 870T992 1150T1294 1618H1550L885 578V506H1427V371H885V295H1427V158H885V0H649V158H104V295H649V371Z"/><glyph unicode="¦" horiz-adv-x="645" d="M410 731H231V1638H410V731ZM410 -410H231V473H410V-410Z"/><glyph unicode="§" horiz-adv-x="1128" d="M221 1112Q165 1147 143 1205T120 1345V1367Q120 1492 225 1562T549 1632Q765 1632 863 1569T977 1360L981 1264H807V1303Q807 1369 786 1407T718 1462T557 1479Q432 1479 373 1454T305 1370L304 1360V1346L305 1321Q309 1282 327 1258T385 1216T583 1156Q823 1091 889 1058T988 970T1022 855Q1022 808 1009 762T965 680T864 621Q967 588 1024 511T1082 293L1081 274Q1069 123 947 50T592 -23Q336 -23 215 45T68 276Q63 296 63 373H287V334L289 297Q298 207 362 172T600 137Q727 137 794 170T872 283L873 295V313L872 342Q864 412 808 457T627 537Q600 543 474 583T262 651Q176 680 127 739T78 911Q78 967 98 1005T152 1071T221 1112ZM764 676Q803 682 827 716T852 799Q852 839 834 870T784 913Q607 982 350 1051Q309 1042 286 1008T263 923V916Q266 838 330 811Q505 745 764 676Z"/><glyph unicode="¨" horiz-adv-x="897" d="M739 1221H535V1470H739V1221ZM365 1221H158V1470H365V1221Z"/><glyph unicode="©" horiz-adv-x="1438" d="M723 434Q532 434 382 502T152 694T71 984V1030Q71 1169 99 1256T183 1415T321 1537T503 1614T721 1640Q996 1640 1171 1499T1366 1120L1368 1038L1366 950Q1357 797 1275 680T1050 498T723 434ZM1289 1000V1076Q1289 1217 1220 1329T1022 1500T721 1559Q452 1559 302 1433T151 1074V1032L152 969Q160 757 312 634T721 510Q985 510 1137 641T1289 1000ZM1133 938Q1133 800 1026 724T723 647Q515 647 409 745T303 1032Q303 1215 413 1315T727 1415Q935 1415 1032 1341T1130 1118H948Q938 1197 889 1227T731 1257Q615 1257 552 1198T489 1030Q489 943 511 895T584 825T731 803Q837 803 889 834T950 938H1133Z"/><glyph unicode="ª" horiz-adv-x="1130" d="M1053 541H842Q827 675 827 688V696Q734 530 430 530Q251 530 150 600T41 797V837Q41 958 105 1031T301 1145T702 1185Q761 1185 823 1180L824 1210L821 1321Q815 1409 754 1444T557 1479Q475 1479 421 1459T331 1395T295 1272H92Q92 1405 158 1487Q210 1570 313 1613T565 1657Q785 1657 898 1591T1026 1378Q1033 1305 1033 1148L1028 774Q1028 696 1035 628T1053 541ZM1079 305H61V465H1079V305ZM823 1038Q700 1047 598 1047Q475 1045 399 1023T288 963T254 855Q254 780 321 736T522 692Q671 692 747 749T823 928V1038Z"/><glyph unicode="«" horiz-adv-x="1262" d="M1169 180L608 612V762L1169 1196V965L799 688L1169 416V180ZM674 180L111 612V762L674 1196V965L303 688L674 416V180Z"/><glyph unicode="¬" horiz-adv-x="1536" d="M1116 352V728H212V920H1296V352H1116Z"/><glyph unicode="­" horiz-adv-x="944" d="M911 643H35V868H911V643Z"/><glyph unicode="®" horiz-adv-x="1438" d="M723 434Q532 434 382 502T152 694T71 984V1030Q71 1169 99 1256T183 1415T321 1537T503 1614T721 1640Q996 1640 1171 1499T1366 1120L1368 1038L1366 950Q1357 797 1275 680T1050 498T723 434ZM1289 1000V1076Q1289 1217 1220 1329T1022 1500T721 1559Q452 1559 302 1433T151 1074V1032L152 969Q160 757 312 634T721 510Q985 510 1137 641T1289 1000ZM1071 674H885L735 946H584V674H406V1382H799Q893 1382 957 1354T1047 1281T1073 1176Q1073 1083 1030 1032T905 969L1071 674ZM897 1155Q897 1193 865 1218T782 1243H584V1067H784Q835 1067 866 1091T897 1155Z"/><glyph unicode="¯" horiz-adv-x="897" d="M756 1266H139V1407H756V1266Z"/><glyph unicode="°" horiz-adv-x="662" d="M330 1559Q441 1559 519 1480T598 1288Q598 1176 521 1097T330 1018Q220 1018 142 1096T63 1288Q63 1402 142 1480T330 1559ZM330 1421Q277 1421 237 1383T197 1288Q197 1232 236 1194T330 1155Q389 1155 427 1193T465 1288Q465 1345 427 1383T330 1421Z"/><glyph unicode="±" horiz-adv-x="1536" d="M672 352V764H200V936H672V1352H864V936H1340V764H864V352H672ZM204 24V216H1336V24H204Z"/><glyph unicode="²" horiz-adv-x="932" d="M848 795H104V920Q180 967 379 1077Q505 1146 555 1185T630 1265T655 1352V1384Q655 1445 609 1472T465 1499Q423 1499 396 1494T348 1478T312 1447T286 1406T276 1346H113Q113 1425 127 1454Q165 1542 249 1585T481 1628Q826 1628 831 1403Q831 1316 815 1275T760 1191T653 1101T352 934H848V795Z"/><glyph unicode="³" horiz-adv-x="961" d="M651 1223Q766 1215 826 1168T887 1039Q887 907 786 846T485 784Q308 784 209 831T96 971L90 1053H258L257 1025V1003L258 981Q262 897 481 897Q605 897 657 927T710 1024L709 1051Q702 1105 655 1127T506 1149H303V1266H508Q599 1271 638 1301T677 1398Q677 1454 634 1482T485 1511Q306 1511 289 1423L285 1366H125Q125 1398 133 1446Q166 1630 496 1630Q817 1630 842 1448L845 1416Q845 1328 800 1283T651 1223Z"/><glyph unicode="´" horiz-adv-x="897" d="M281 1221L483 1513H721L489 1221H281Z"/><glyph unicode="µ" horiz-adv-x="1408" d="M252 -424Q196 -424 168 -392T140 -280Q140 -124 156 100Q172 300 172 328L176 356V1176H368V320Q368 228 450 176T628 124Q760 124 858 190T1008 380V1176H1200V308L1220 0H1056L1020 176Q952 68 836 14T572 -40Q520 -40 444 -14T324 60Q324 -28 352 -112T380 -264Q380 -424 252 -424Z"/><glyph unicode="¶" horiz-adv-x="1098" d="M1006 1630V-223H915V1462H829V-223H739V537Q705 494 626 465T469 436Q320 436 226 500T93 693T53 1038Q53 1351 166 1494T481 1638Q560 1638 635 1613T739 1552L766 1630H1006ZM737 1053L738 1240V1309L737 1346Q735 1386 683 1414T571 1442Q456 1442 401 1399T317 1254T287 1034Q287 943 302 856T344 727T427 658T553 631Q621 631 676 661T735 737L737 856V1053Z"/><glyph unicode="·" horiz-adv-x="643" d="M465 641H174V969H465V641Z"/><glyph unicode="¸" horiz-adv-x="897" d="M551 -219Q551 -121 371 -121V0H502V-45Q601 -48 658 -97T715 -231Q715 -307 651 -356T475 -406Q385 -406 279 -365V-260Q370 -301 441 -301Q491 -301 521 -280T551 -219Z"/><glyph unicode="¹" horiz-adv-x="776" d="M535 795H373V1434L51 1362V1497Q91 1497 240 1546T412 1624H535V795Z"/><glyph unicode="º" horiz-adv-x="1214" d="M1151 1090Q1151 840 1009 681T602 522Q430 522 310 589T125 778T59 1090Q59 1343 196 1499T606 1655Q864 1655 1007 1514T1151 1090ZM1141 305H61V465H1141V305ZM940 1090Q940 1300 864 1389T604 1479Q429 1479 349 1385T268 1090Q268 948 304 862T408 737T604 698Q718 698 788 734T899 863T940 1090Z"/><glyph unicode="»" horiz-adv-x="1262" d="M590 215V449L954 723L590 999V1231L1151 797V647L590 215ZM92 215V449L457 723L92 999V1231L655 797V647L92 215Z"/><glyph unicode="¼" horiz-adv-x="1587" d="M514 795H350V1434L29 1362V1497Q72 1497 219 1546T389 1624H514V795ZM1212 1618L1067 1329Q560 315 408 0H268L696 856Q768 996 1069 1618H1212ZM1540 193H1382V0H1225V197H709V338L1217 825H1382V330H1540V193ZM1225 330V662L872 330H1225Z"/><glyph unicode="½" horiz-adv-x="1559" d="M502 795H338V1434L16 1362V1497Q56 1497 206 1546T379 1624H502V795ZM1159 1618L688 676L356 0H217L643 856Q715 996 1016 1618H1159ZM1511 0H768V125Q844 172 1043 282Q1169 351 1219 390T1294 470T1319 557V590Q1319 651 1271 678T1128 705Q1052 705 1016 687T954 623Q943 601 942 587T940 551H776V577Q776 632 791 659Q830 749 914 791T1145 834Q1490 834 1495 608Q1495 521 1479 480T1424 396T1317 306T1016 139H1511V0Z"/><glyph unicode="¾" horiz-adv-x="1796" d="M590 1223Q707 1215 766 1168T825 1039Q825 907 724 846T424 784Q245 784 145 833T35 971L29 1053H197L196 1025V1003L197 981Q201 897 420 897Q544 897 596 928T648 1024Q648 1077 629 1101T565 1137T444 1149H242V1266H446Q538 1271 577 1301T617 1398Q617 1430 599 1457T537 1498T424 1511Q244 1511 227 1423L225 1389V1366H63Q63 1392 72 1446Q105 1630 434 1630Q593 1630 680 1586T780 1448L783 1416Q783 1329 738 1284T590 1223ZM1427 1618L1282 1329Q775 315 623 0H483L911 856Q983 996 1284 1618H1427ZM1765 193H1608V0H1450V197H934V338L1444 825H1608V330H1765V193ZM1450 330V666L1098 330H1450Z"/><glyph unicode="¿" horiz-adv-x="1231" d="M553 1618H801V1313H553V1618ZM573 1190H784Q784 1072 754 983T667 828T451 661Q373 611 335 551T297 414Q297 288 377 234T631 180Q803 180 886 245T969 461H1196Q1196 282 1131 179T933 28T608 -20Q324 -20 185 80T45 391Q45 480 68 543T128 653T212 734T309 800T406 865T491 942T550 1045T573 1190Z"/><glyph unicode="À" horiz-adv-x="1511" d="M399 408L246 0H2L623 1618H918L1507 0H1260L1112 408H399ZM1038 616L809 1253L766 1393L721 1251L477 616H1038ZM977 1631H766L534 1923H774L977 1631Z"/><glyph unicode="Á" horiz-adv-x="1511" d="M399 408L246 0H2L623 1618H918L1507 0H1260L1112 408H399ZM1038 616L809 1253L766 1393L721 1251L477 616H1038ZM535 1631L737 1923H975L743 1631H535Z"/><glyph unicode="Â" horiz-adv-x="1511" d="M399 408L246 0H2L623 1618H918L1507 0H1260L1112 408H399ZM1038 616L809 1253L766 1393L721 1251L477 616H1038ZM1102 1637H919L756 1807L590 1637H409L639 1926H874L1102 1637Z"/><glyph unicode="Ã" horiz-adv-x="1511" d="M399 408L246 0H2L623 1618H918L1507 0H1260L1112 408H399ZM1038 616L809 1253L766 1393L721 1251L477 616H1038ZM631 1753Q558 1753 555 1639H403Q406 1767 456 1839T604 1911Q702 1911 768 1850Q807 1812 829 1800T880 1788Q914 1788 934 1812T956 1903H1108Q1105 1775 1055 1703T909 1631Q802 1631 740 1692Q703 1727 680 1740T631 1753Z"/><glyph unicode="Ä" horiz-adv-x="1511" d="M399 408L246 0H2L623 1618H918L1507 0H1260L1112 408H399ZM1038 616L809 1253L766 1393L721 1251L477 616H1038ZM1046 1631H842V1880H1046V1631ZM672 1631H465V1880H672V1631Z"/><glyph unicode="Å" horiz-adv-x="1511" d="M621 1612Q557 1676 557 1763Q557 1851 618 1913T768 1976Q857 1976 918 1914T979 1763Q979 1677 920 1614L1507 0H1260L1112 408H399L246 0H2L621 1612ZM768 1851Q734 1851 709 1826T684 1763Q684 1726 709 1700T768 1673Q801 1673 826 1699T852 1763Q852 1799 828 1825T768 1851ZM1038 616L809 1253L766 1393L721 1251L477 616H1038Z"/><glyph unicode="Æ" horiz-adv-x="2126" d="M2064 1618V1401H1212V922H2030V705H1212V217H2073V0H981V385H444L231 0H-18L899 1618H2064ZM981 1364L901 1200L547 582H981V1364Z"/><glyph unicode="Ç" horiz-adv-x="1579" d="M711 -16Q384 13 234 216T84 815Q84 1239 260 1439T815 1640Q1468 1640 1509 1030H1266Q1251 1236 1140 1326T811 1417Q557 1417 445 1275T332 811Q332 493 448 342T821 190Q1022 190 1135 288T1270 575H1511Q1497 392 1415 260T1188 55T842 -20V-45Q941 -48 998 -97T1055 -231Q1055 -307 991 -356T814 -406Q724 -406 618 -365V-260Q709 -301 780 -301Q831 -301 861 -280T891 -219Q891 -121 711 -121V-16Z"/><glyph unicode="È" horiz-adv-x="1409" d="M1305 0H176V1618H1296V1401H410V924H1262V705H410V217H1305V0ZM926 1631H715L483 1923H723L926 1631Z"/><glyph unicode="É" horiz-adv-x="1409" d="M1305 0H176V1618H1296V1401H410V924H1262V705H410V217H1305V0ZM484 1631L686 1923H924L692 1631H484Z"/><glyph unicode="Ê" horiz-adv-x="1409" d="M1305 0H176V1618H1296V1401H410V924H1262V705H410V217H1305V0ZM1051 1637H868L705 1807L539 1637H358L588 1926H823L1051 1637Z"/><glyph unicode="Ë" horiz-adv-x="1409" d="M1305 0H176V1618H1296V1401H410V924H1262V705H410V217H1305V0ZM995 1631H791V1880H995V1631ZM621 1631H414V1880H621V1631Z"/><glyph unicode="Ì" horiz-adv-x="596" d="M418 0H176V1618H418V0ZM521 1631H310L78 1923H318L521 1631Z"/><glyph unicode="Í" horiz-adv-x="596" d="M418 0H176V1618H418V0ZM79 1631L281 1923H519L287 1631H79Z"/><glyph unicode="Î" horiz-adv-x="596" d="M418 0H176V1618H418V0ZM646 1637H463L300 1807L134 1637H-47L183 1926H418L646 1637Z"/><glyph unicode="Ï" horiz-adv-x="596" d="M418 0H176V1618H418V0ZM590 1631H386V1880H590V1631ZM216 1631H9V1880H216V1631Z"/><glyph unicode="Ð" horiz-adv-x="1563" d="M176 694H45V913H176V1618H872Q1019 1618 1120 1591T1291 1508T1400 1371T1459 1166T1477 834Q1477 543 1449 402T1347 171T1165 41T891 0H176V694ZM412 913H809V694H412V217H844Q967 217 1039 242T1158 321T1225 491T1245 831Q1245 1209 1151 1303Q1097 1355 1028 1377T846 1399H412V913Z"/><glyph unicode="Ñ" horiz-adv-x="1591" d="M1421 0H1157L403 1268V0H176V1618H461L1194 373V1618H1421V0ZM671 1753Q598 1753 595 1639H443Q446 1767 496 1839T644 1911Q742 1911 808 1850Q847 1812 869 1800T920 1788Q954 1788 974 1812T996 1903H1148Q1145 1775 1095 1703T949 1631Q842 1631 780 1692Q743 1727 720 1740T671 1753Z"/><glyph unicode="Ò" horiz-adv-x="1618" d="M809 1640Q1060 1640 1222 1545T1459 1273T1534 817Q1534 412 1362 196T809 -20Q561 -20 405 71T166 349T84 813Q84 1096 163 1273T406 1545T809 1640ZM811 188Q915 188 998 215T1155 311Q1294 450 1294 811Q1294 980 1261 1106T1169 1294Q1092 1369 1008 1398T809 1427Q696 1427 615 1400T464 1305T362 1108T328 809Q328 609 377 470T531 260T811 188ZM1030 1631H819L587 1923H827L1030 1631Z"/><glyph unicode="Ó" horiz-adv-x="1618" d="M809 1640Q1060 1640 1222 1545T1459 1273T1534 817Q1534 412 1362 196T809 -20Q561 -20 405 71T166 349T84 813Q84 1096 163 1273T406 1545T809 1640ZM811 188Q915 188 998 215T1155 311Q1294 450 1294 811Q1294 980 1261 1106T1169 1294Q1092 1369 1008 1398T809 1427Q696 1427 615 1400T464 1305T362 1108T328 809Q328 609 377 470T531 260T811 188ZM589 1631L791 1923H1029L797 1631H589Z"/><glyph unicode="Ô" horiz-adv-x="1618" d="M809 1640Q1060 1640 1222 1545T1459 1273T1534 817Q1534 412 1362 196T809 -20Q561 -20 405 71T166 349T84 813Q84 1096 163 1273T406 1545T809 1640ZM811 188Q915 188 998 215T1155 311Q1294 450 1294 811Q1294 980 1261 1106T1169 1294Q1092 1369 1008 1398T809 1427Q696 1427 615 1400T464 1305T362 1108T328 809Q328 609 377 470T531 260T811 188ZM1155 1637H972L809 1807L643 1637H462L692 1926H927L1155 1637Z"/><glyph unicode="Õ" horiz-adv-x="1618" d="M809 1640Q1060 1640 1222 1545T1459 1273T1534 817Q1534 412 1362 196T809 -20Q561 -20 405 71T166 349T84 813Q84 1096 163 1273T406 1545T809 1640ZM811 188Q915 188 998 215T1155 311Q1294 450 1294 811Q1294 980 1261 1106T1169 1294Q1092 1369 1008 1398T809 1427Q696 1427 615 1400T464 1305T362 1108T328 809Q328 609 377 470T531 260T811 188ZM684 1753Q611 1753 608 1639H456Q459 1767 509 1839T657 1911Q755 1911 821 1850Q860 1812 882 1800T933 1788Q967 1788 987 1812T1009 1903H1161Q1158 1775 1108 1703T962 1631Q855 1631 793 1692Q756 1727 733 1740T684 1753Z"/><glyph unicode="Ö" horiz-adv-x="1618" d="M809 1640Q1060 1640 1222 1545T1459 1273T1534 817Q1534 412 1362 196T809 -20Q561 -20 405 71T166 349T84 813Q84 1096 163 1273T406 1545T809 1640ZM811 188Q915 188 998 215T1155 311Q1294 450 1294 811Q1294 980 1261 1106T1169 1294Q1092 1369 1008 1398T809 1427Q696 1427 615 1400T464 1305T362 1108T328 809Q328 609 377 470T531 260T811 188ZM1099 1631H895V1880H1099V1631ZM725 1631H518V1880H725V1631Z"/><glyph unicode="×" horiz-adv-x="1161" d="M950 1022L696 770L952 514L834 393L580 647L326 393L209 516L463 770L209 1022L328 1145L580 893L834 1145L950 1022Z"/><glyph unicode="Ø" horiz-adv-x="1618" d="M1333 1468Q1393 1415 1440 1324T1511 1107T1534 817Q1534 412 1362 196T809 -20Q549 -20 397 76L285 -88H117Q213 53 283 158Q225 221 178 318T108 537T84 813Q84 1096 163 1273T406 1545T809 1640Q1061 1640 1223 1546L1292 1647H1454L1333 1468ZM424 375Q537 536 1098 1354Q991 1427 809 1427Q696 1427 615 1400T464 1305T362 1108T328 809Q328 532 424 375ZM1196 1255L522 268Q591 223 660 206T811 188Q915 188 998 215T1155 311Q1294 450 1294 811Q1294 964 1268 1078T1196 1255Z"/><glyph unicode="Ù" horiz-adv-x="1583" d="M1427 457Q1427 232 1260 107T793 -18Q480 -18 317 107T154 471V1618H391V489Q391 346 493 267T799 188Q976 188 1083 269T1190 487V1618H1427V457ZM1013 1631H802L570 1923H810L1013 1631Z"/><glyph unicode="Ú" horiz-adv-x="1583" d="M1427 457Q1427 232 1260 107T793 -18Q480 -18 317 107T154 471V1618H391V489Q391 346 493 267T799 188Q976 188 1083 269T1190 487V1618H1427V457ZM571 1631L773 1923H1011L779 1631H571Z"/><glyph unicode="Û" horiz-adv-x="1583" d="M1427 457Q1427 232 1260 107T793 -18Q480 -18 317 107T154 471V1618H391V489Q391 346 493 267T799 188Q976 188 1083 269T1190 487V1618H1427V457ZM1138 1637H955L792 1807L626 1637H445L675 1926H910L1138 1637Z"/><glyph unicode="Ü" horiz-adv-x="1583" d="M1427 457Q1427 232 1260 107T793 -18Q480 -18 317 107T154 471V1618H391V489Q391 346 493 267T799 188Q976 188 1083 269T1190 487V1618H1427V457ZM1082 1631H878V1880H1082V1631ZM708 1631H501V1880H708V1631Z"/><glyph unicode="Ý" horiz-adv-x="1518" d="M1516 1618L868 547V0H627V545L4 1618H262L750 762L1268 1618H1516ZM539 1631L741 1923H979L747 1631H539Z"/><glyph unicode="Þ" horiz-adv-x="1507" d="M420 1618V1370H948Q1109 1370 1208 1324T1354 1178Q1425 1069 1425 852Q1425 678 1380 567T1228 398T946 336H851L416 338V0H176V1618H420ZM1186 850Q1186 979 1156 1040T1067 1128T907 1155H416V549H903Q1007 549 1068 578T1157 667T1186 850Z"/><glyph unicode="ß" horiz-adv-x="1765" d="M670 1450Q563 1448 513 1402T463 1255V0H236V936H31V1126H236V1290Q236 1463 352 1554T688 1645Q864 1645 977 1561T1090 1339Q1090 1274 1061 1219T976 1116Q915 1062 889 1017T862 920Q862 860 906 823T1075 759T1339 709Q1729 636 1729 342Q1729 168 1594 75T1192 -18Q943 -18 810 46T643 242Q634 280 633 344L631 377H858V340Q858 150 1194 150Q1357 150 1432 190T1507 326Q1507 407 1442 453T1231 524L1047 559Q835 596 740 676T645 885Q645 946 671 998T750 1097Q803 1146 828 1190T854 1286Q854 1363 806 1406T670 1450Z"/><glyph unicode="à" horiz-adv-x="1303" d="M1194 0H989Q980 0 973 44T965 127V143Q843 -12 522 -12Q320 -12 204 65T84 281V342Q89 451 157 528T355 648T695 691Q817 691 961 676V703Q961 805 946 845T896 912T805 952T668 965Q499 965 425 908T350 748H139Q139 823 172 902T275 1038T439 1123T664 1151Q893 1151 1024 1072T1167 846Q1173 710 1175 619L1171 304V233Q1171 154 1178 86T1194 0ZM967 514Q848 529 757 529Q519 529 412 481T305 334Q305 270 334 236T428 181T582 160Q923 160 958 401Q967 462 967 514ZM873 1221H662L430 1513H670L873 1221Z"/><glyph unicode="á" horiz-adv-x="1303" d="M1194 0H989Q980 0 973 44T965 127V143Q843 -12 522 -12Q320 -12 204 65T84 281V342Q89 451 157 528T355 648T695 691Q817 691 961 676V703Q961 805 946 845T896 912T805 952T668 965Q499 965 425 908T350 748H139Q139 823 172 902T275 1038T439 1123T664 1151Q893 1151 1024 1072T1167 846Q1173 710 1175 619L1171 304V233Q1171 154 1178 86T1194 0ZM967 514Q848 529 757 529Q519 529 412 481T305 334Q305 270 334 236T428 181T582 160Q923 160 958 401Q967 462 967 514ZM431 1221L633 1513H871L639 1221H431Z"/><glyph unicode="â" horiz-adv-x="1303" d="M1194 0H989Q980 0 973 44T965 127V143Q843 -12 522 -12Q320 -12 204 65T84 281V342Q89 451 157 528T355 648T695 691Q817 691 961 676V703Q961 805 946 845T896 912T805 952T668 965Q499 965 425 908T350 748H139Q139 823 172 902T275 1038T439 1123T664 1151Q893 1151 1024 1072T1167 846Q1173 710 1175 619L1171 304V233Q1171 154 1178 86T1194 0ZM967 514Q848 529 757 529Q519 529 412 481T305 334Q305 270 334 236T428 181T582 160Q923 160 958 401Q967 462 967 514ZM998 1227H815L652 1397L486 1227H305L535 1516H770L998 1227Z"/><glyph unicode="ã" horiz-adv-x="1303" d="M1194 0H989Q980 0 973 44T965 127V143Q843 -12 522 -12Q320 -12 204 65T84 281V342Q89 451 157 528T355 648T695 691Q817 691 961 676V703Q961 805 946 845T896 912T805 952T668 965Q499 965 425 908T350 748H139Q139 823 172 902T275 1038T439 1123T664 1151Q893 1151 1024 1072T1167 846Q1173 710 1175 619L1171 304V233Q1171 154 1178 86T1194 0ZM967 514Q848 529 757 529Q519 529 412 481T305 334Q305 270 334 236T428 181T582 160Q923 160 958 401Q967 462 967 514ZM527 1343Q454 1343 451 1229H299Q302 1357 352 1429T500 1501Q598 1501 664 1440Q703 1402 725 1390T776 1378Q810 1378 830 1402T852 1493H1004Q1001 1365 951 1293T805 1221Q698 1221 636 1282Q599 1317 576 1330T527 1343Z"/><glyph unicode="ä" horiz-adv-x="1303" d="M1194 0H989Q980 0 973 44T965 127V143Q843 -12 522 -12Q320 -12 204 65T84 281V342Q89 451 157 528T355 648T695 691Q817 691 961 676V703Q961 805 946 845T896 912T805 952T668 965Q499 965 425 908T350 748H139Q139 823 172 902T275 1038T439 1123T664 1151Q893 1151 1024 1072T1167 846Q1173 710 1175 619L1171 304V233Q1171 154 1178 86T1194 0ZM967 514Q848 529 757 529Q519 529 412 481T305 334Q305 270 334 236T428 181T582 160Q923 160 958 401Q967 462 967 514ZM942 1221H738V1470H942V1221ZM568 1221H361V1470H568V1221Z"/><glyph unicode="å" horiz-adv-x="1303" d="M1194 0H989Q980 0 973 44T965 127V143Q843 -12 522 -12Q320 -12 204 65T84 281V342Q89 451 157 528T355 648T695 691Q817 691 961 676V703Q961 805 946 845T896 912T805 952T668 965Q499 965 425 908T350 748H139Q139 823 172 902T275 1038T439 1123T664 1151Q893 1151 1024 1072T1167 846Q1173 710 1175 619L1171 304V233Q1171 154 1178 86T1194 0ZM967 514Q848 529 757 529Q519 529 412 481T305 334Q305 270 334 236T428 181T582 160Q923 160 958 401Q967 462 967 514ZM652 1632Q740 1632 801 1570T862 1419Q862 1331 800 1269T652 1206Q565 1206 503 1268T441 1419Q441 1507 502 1569T652 1632ZM652 1507Q616 1507 592 1482T568 1419Q568 1384 592 1357T652 1329Q686 1329 710 1356T735 1419Q735 1456 711 1481T652 1507Z"/><glyph unicode="æ" horiz-adv-x="2177" d="M1059 199Q987 87 861 38T524 -12Q379 -12 282 22T134 127T83 321Q83 505 237 597T695 689Q817 689 961 674Q961 698 954 803Q946 886 874 924T651 963Q501 963 424 913T346 748H139Q139 932 277 1041T664 1151Q851 1151 959 1097T1098 928Q1132 1026 1259 1088T1559 1151Q1733 1151 1862 1083T2059 890T2128 563L2126 492H1171Q1171 395 1193 340T1264 247T1392 186T1548 164Q1645 164 1724 189T1846 256T1903 352H2118Q2097 238 2021 152T1828 24T1546 -18Q1350 -18 1226 39T1059 199ZM1907 639Q1907 808 1810 884T1544 961Q1419 961 1335 920T1210 804T1169 639H1907ZM823 535Q645 531 549 510T399 459T330 395T312 329Q312 305 327 273T376 220T460 190T598 180Q705 180 798 216T918 303Q967 369 967 465L958 532L823 535Z"/><glyph unicode="ç" horiz-adv-x="1305" d="M573 -14Q331 11 202 157T72 567Q72 854 236 1003T688 1153Q828 1153 932 1117T1110 1006T1208 858T1233 705H1016Q1016 761 986 820T874 916T670 954Q537 954 453 906T332 775T295 563Q295 424 333 342T456 216T676 172Q818 172 913 233T1020 406H1233Q1223 219 1088 105T705 -18V-45Q804 -48 861 -97T918 -231Q918 -307 853 -356T677 -406Q587 -406 481 -365V-260Q572 -301 643 -301Q694 -301 724 -280T754 -219Q754 -170 711 -146T573 -121V-14Z"/><glyph unicode="è" horiz-adv-x="1303" d="M1237 352Q1237 267 1155 168T952 25T670 -20Q482 -20 350 48T145 244T72 569Q72 844 235 998T664 1153Q933 1153 1090 1005T1248 573Q1248 528 1243 483H289Q293 385 344 312T481 202T672 166Q775 166 855 191T979 264T1022 352H1237ZM1024 653Q1024 758 984 821T863 924T664 963Q550 963 467 921T341 816T291 653H1024ZM873 1221H662L430 1513H670L873 1221Z"/><glyph unicode="é" horiz-adv-x="1303" d="M1237 352Q1237 267 1155 168T952 25T670 -20Q482 -20 350 48T145 244T72 569Q72 844 235 998T664 1153Q933 1153 1090 1005T1248 573Q1248 528 1243 483H289Q293 385 344 312T481 202T672 166Q775 166 855 191T979 264T1022 352H1237ZM1024 653Q1024 758 984 821T863 924T664 963Q550 963 467 921T341 816T291 653H1024ZM431 1221L633 1513H871L639 1221H431Z"/><glyph unicode="ê" horiz-adv-x="1303" d="M1237 352Q1237 267 1155 168T952 25T670 -20Q482 -20 350 48T145 244T72 569Q72 844 235 998T664 1153Q933 1153 1090 1005T1248 573Q1248 528 1243 483H289Q293 385 344 312T481 202T672 166Q775 166 855 191T979 264T1022 352H1237ZM1024 653Q1024 758 984 821T863 924T664 963Q550 963 467 921T341 816T291 653H1024ZM998 1227H815L652 1397L486 1227H305L535 1516H770L998 1227Z"/><glyph unicode="ë" horiz-adv-x="1303" d="M1237 352Q1237 267 1155 168T952 25T670 -20Q482 -20 350 48T145 244T72 569Q72 844 235 998T664 1153Q933 1153 1090 1005T1248 573Q1248 528 1243 483H289Q293 385 344 312T481 202T672 166Q775 166 855 191T979 264T1022 352H1237ZM1024 653Q1024 758 984 821T863 924T664 963Q550 963 467 921T341 816T291 653H1024ZM942 1221H738V1470H942V1221ZM568 1221H361V1470H568V1221Z"/><glyph unicode="ì" horiz-adv-x="510" d="M377 0H158Q143 8 143 102V1126H367V109Q367 10 377 0ZM478 1221H267L35 1513H275L478 1221Z"/><glyph unicode="í" horiz-adv-x="510" d="M377 0H158Q143 8 143 102V1126H367V109Q367 10 377 0ZM36 1221L238 1513H476L244 1221H36Z"/><glyph unicode="î" horiz-adv-x="510" d="M377 0H158Q143 8 143 102V1126H367V109Q367 10 377 0ZM603 1227H420L257 1397L91 1227H-90L140 1516H375L603 1227Z"/><glyph unicode="ï" horiz-adv-x="510" d="M377 0H158Q143 8 143 102V1126H367V109Q367 10 377 0ZM547 1221H343V1470H547V1221ZM173 1221H-34V1470H173V1221Z"/><glyph unicode="ð" horiz-adv-x="1358" d="M1018 1165Q983 1144 957 1132T895 1120Q824 1120 778 1163T721 1296L801 1319Q808 1258 830 1232T897 1206Q952 1206 1001 1249L973 1317Q892 1460 670 1460Q561 1460 493 1431T393 1337Q385 1323 385 1294H164Q164 1380 224 1467T402 1598T692 1642Q858 1642 981 1580T1167 1401L1198 1343Q1243 1375 1265 1382T1317 1389Q1393 1387 1437 1335T1493 1200L1415 1178Q1409 1242 1384 1270T1315 1298Q1303 1298 1294 1297T1276 1292T1227 1262Q1254 1188 1272 1063T1290 834Q1290 486 1224 320T1021 68T674 -18Q470 -18 338 44T138 232T70 523Q70 687 141 812T322 993T610 1049Q758 1049 872 1003T1059 866Q1059 939 1048 1023T1018 1165ZM674 178Q791 178 878 227T1007 371T1057 680Q1033 729 979 772T850 843T678 870Q492 870 401 778T310 510Q310 394 352 323T478 215T674 178Z"/><glyph unicode="ñ" horiz-adv-x="1311" d="M1190 0H975Q969 0 967 25T964 148T963 409V698Q963 817 893 881T684 946Q540 946 450 874T360 684V0H139V1126H352V950Q393 1046 502 1097T766 1149Q968 1149 1076 1047T1184 748V224Q1184 137 1184 82T1186 14T1190 0ZM531 1343Q458 1343 455 1229H303Q306 1357 356 1429T504 1501Q602 1501 668 1440Q707 1402 729 1390T780 1378Q814 1378 834 1402T856 1493H1008Q1005 1365 955 1293T809 1221Q702 1221 640 1282Q603 1317 580 1330T531 1343Z"/><glyph unicode="ò" horiz-adv-x="1352" d="M1282 567Q1282 386 1206 253T997 50T678 -20Q489 -20 355 47T146 249T72 567Q72 831 233 992T680 1153Q964 1153 1123 999T1282 567ZM1065 565Q1065 710 1028 790T900 914T678 958Q552 958 466 911T337 783T293 565Q293 355 394 262T680 168Q870 168 967 270T1065 565ZM897 1221H686L454 1513H694L897 1221Z"/><glyph unicode="ó" horiz-adv-x="1352" d="M1282 567Q1282 386 1206 253T997 50T678 -20Q489 -20 355 47T146 249T72 567Q72 831 233 992T680 1153Q964 1153 1123 999T1282 567ZM1065 565Q1065 710 1028 790T900 914T678 958Q552 958 466 911T337 783T293 565Q293 355 394 262T680 168Q870 168 967 270T1065 565ZM456 1221L658 1513H896L664 1221H456Z"/><glyph unicode="ô" horiz-adv-x="1352" d="M1282 567Q1282 386 1206 253T997 50T678 -20Q489 -20 355 47T146 249T72 567Q72 831 233 992T680 1153Q964 1153 1123 999T1282 567ZM1065 565Q1065 710 1028 790T900 914T678 958Q552 958 466 911T337 783T293 565Q293 355 394 262T680 168Q870 168 967 270T1065 565ZM1022 1227H839L676 1397L510 1227H329L559 1516H794L1022 1227Z"/><glyph unicode="õ" horiz-adv-x="1352" d="M1282 567Q1282 386 1206 253T997 50T678 -20Q489 -20 355 47T146 249T72 567Q72 831 233 992T680 1153Q964 1153 1123 999T1282 567ZM1065 565Q1065 710 1028 790T900 914T678 958Q552 958 466 911T337 783T293 565Q293 355 394 262T680 168Q870 168 967 270T1065 565ZM551 1343Q478 1343 475 1229H323Q326 1357 376 1429T524 1501Q622 1501 688 1440Q727 1402 749 1390T800 1378Q834 1378 854 1402T876 1493H1028Q1025 1365 975 1293T829 1221Q722 1221 660 1282Q623 1317 600 1330T551 1343Z"/><glyph unicode="ö" horiz-adv-x="1352" d="M1282 567Q1282 386 1206 253T997 50T678 -20Q489 -20 355 47T146 249T72 567Q72 831 233 992T680 1153Q964 1153 1123 999T1282 567ZM1065 565Q1065 710 1028 790T900 914T678 958Q552 958 466 911T337 783T293 565Q293 355 394 262T680 168Q870 168 967 270T1065 565ZM966 1221H762V1470H966V1221ZM592 1221H385V1470H592V1221Z"/><glyph unicode="÷" horiz-adv-x="1536" d="M208 684V896H1328V684H208ZM768 228Q704 228 656 276T608 388Q608 452 650 500T768 548Q840 548 884 500T928 388Q928 324 880 276T768 228ZM768 1028Q704 1028 656 1076T608 1188Q608 1252 650 1300T768 1348Q840 1348 884 1300T928 1188Q928 1124 880 1076T768 1028Z"/><glyph unicode="ø" horiz-adv-x="1352" d="M240 119Q154 205 113 314T72 567Q72 837 228 994T680 1151Q876 1151 1010 1085L1085 1178H1235Q1213 1152 1110 1020Q1152 981 1169 952Q1282 808 1282 567Q1282 296 1128 139T676 -18Q461 -18 332 57L244 -51H104L240 119ZM371 291L879 913Q799 948 678 948Q498 948 396 851T293 565Q293 381 371 291ZM979 850L459 221Q539 178 678 178Q803 178 888 221T1019 354T1065 565Q1065 658 1042 735T979 850Z"/><glyph unicode="ù" horiz-adv-x="1305" d="M1180 0H965L958 143Q911 65 810 24T561 -18Q359 -18 244 83T129 360V889Q129 1126 125 1126H348Q352 1126 352 914V424Q352 294 427 232T653 170Q788 170 870 236T952 408V1126H1174V188Q1174 111 1175 57T1180 0ZM874 1221H663L431 1513H671L874 1221Z"/><glyph unicode="ú" horiz-adv-x="1305" d="M1180 0H965L958 143Q911 65 810 24T561 -18Q359 -18 244 83T129 360V889Q129 1126 125 1126H348Q352 1126 352 914V424Q352 294 427 232T653 170Q788 170 870 236T952 408V1126H1174V188Q1174 111 1175 57T1180 0ZM432 1221L634 1513H872L640 1221H432Z"/><glyph unicode="û" horiz-adv-x="1305" d="M1180 0H965L958 143Q911 65 810 24T561 -18Q359 -18 244 83T129 360V889Q129 1126 125 1126H348Q352 1126 352 914V424Q352 294 427 232T653 170Q788 170 870 236T952 408V1126H1174V188Q1174 111 1175 57T1180 0ZM999 1227H816L653 1397L487 1227H306L536 1516H771L999 1227Z"/><glyph unicode="ü" horiz-adv-x="1305" d="M1180 0H965L958 143Q911 65 810 24T561 -18Q359 -18 244 83T129 360V889Q129 1126 125 1126H348Q352 1126 352 914V424Q352 294 427 232T653 170Q788 170 870 236T952 408V1126H1174V188Q1174 111 1175 57T1180 0ZM943 1221H739V1470H943V1221ZM569 1221H362V1470H569V1221Z"/><glyph unicode="ý" horiz-adv-x="1272" d="M1255 1126L598 -354H365L522 0L16 1126H256L448 675L641 219L763 509L1026 1126H1255ZM416 1221L618 1513H856L624 1221H416Z"/><glyph unicode="þ" horiz-adv-x="1360" d="M1305 578Q1305 381 1244 251T1059 56T780 -10Q625 -10 516 36T358 172L360 -354H139V1632H358V942Q389 1034 504 1092T778 1151Q956 1151 1070 1082T1245 889T1305 578ZM1081 563Q1081 767 988 855T713 944Q592 944 513 904T393 785T352 563Q352 425 392 345T509 226T713 186Q834 186 914 225T1038 346T1081 563Z"/><glyph unicode="ÿ" horiz-adv-x="1272" d="M1255 1126L598 -354H365L522 0L16 1126H256L448 675L641 219L763 509L1026 1126H1255ZM926 1221H722V1470H926V1221ZM552 1221H345V1470H552V1221Z"/><glyph unicode="ı" horiz-adv-x="510" d="M377 0H158Q143 8 143 102V1126H367V109Q367 10 377 0Z"/><glyph unicode="Ł" horiz-adv-x="0"/><glyph unicode="ł" horiz-adv-x="0"/><glyph unicode="Œ" horiz-adv-x="2337" d="M1202 1618H2261V1403H1393V920H2226V707H1393V213H2269V0H1200V80Q1143 36 1029 8T791 -20Q626 -20 490 33T265 184T130 445T82 813Q82 1106 166 1288T399 1555T780 1640Q920 1640 1032 1606T1202 1516V1618ZM815 193Q959 193 1045 219T1157 283Q1165 295 1165 723V902Q1165 1274 1157 1290Q1109 1353 1022 1388T813 1423Q690 1423 602 1389T455 1288T362 1093T328 809Q328 494 453 344T815 193Z"/><glyph unicode="œ" horiz-adv-x="2292" d="M1155 227Q1107 112 984 47T676 -18Q378 -18 225 131T72 567Q72 847 231 999T680 1151Q868 1151 998 1087T1176 903Q1288 1151 1651 1151Q1929 1151 2081 999T2235 561L2232 489H1278Q1278 328 1368 249T1655 170Q1754 170 1829 195T1951 263T2009 352H2224Q2202 243 2127 159T1931 29T1653 -18Q1470 -18 1341 45T1155 227ZM2011 643Q2011 800 1918 880T1651 961Q1479 961 1378 876T1276 643H2011ZM1065 565Q1065 766 970 857T678 948Q490 948 392 849T293 565Q293 368 385 273T678 178Q868 178 966 274T1065 565Z"/><glyph unicode="Š" horiz-adv-x="1522" d="M1423 463Q1423 227 1262 104T791 -20Q634 -20 518 4T321 74T188 189T117 338T96 479H340Q340 449 353 399T401 306T487 237T614 196T788 182Q1178 182 1178 424Q1178 539 1104 600T819 707L580 754Q330 802 221 909T111 1202Q111 1408 274 1522T729 1636Q890 1636 1009 1607T1212 1518T1346 1365T1397 1159H1153Q1153 1218 1139 1251Q1092 1351 1000 1391T731 1432Q356 1432 356 1217Q356 1109 435 1053T721 956L952 911Q1193 868 1308 757T1423 463ZM414 1928H595L761 1758L924 1928H1107L877 1639H642L414 1928Z"/><glyph unicode="š" horiz-adv-x="1255" d="M1171 330Q1171 152 1044 67T653 -18Q383 -18 255 37T98 221Q88 265 88 338H307Q307 273 323 245T378 199T489 173T655 164Q813 164 883 198T954 311Q954 373 902 407T680 469L451 506Q258 537 177 613T96 831Q96 982 229 1067T604 1153Q824 1153 948 1098T1112 928Q1128 874 1128 791H913V806Q913 861 892 886T833 928T737 953T598 963Q456 963 385 932T313 831Q313 775 360 746T549 692L788 657Q994 627 1082 552T1171 330ZM281 1518H462L628 1348L791 1518H974L744 1229H509L281 1518Z"/><glyph unicode="Ÿ" horiz-adv-x="1518" d="M1516 1618L868 547V0H627V545L4 1618H262L750 762L1268 1618H1516ZM1049 1631H845V1880H1049V1631ZM675 1631H468V1880H675V1631Z"/><glyph unicode="Ž" horiz-adv-x="1350" d="M1305 0H66V195L985 1401H109V1618H1278V1430L346 213H1305V0ZM328 1928H509L675 1758L838 1928H1021L791 1639H556L328 1928Z"/><glyph unicode="ž" horiz-adv-x="1116" d="M1069 0H63V174L762 936H78V1126H1038V946L326 188H1069V0ZM211 1518H392L558 1348L721 1518H904L674 1229H439L211 1518Z"/><glyph unicode="ƒ" horiz-adv-x="940" d="M70 -334Q-44 -334 -143 -317L-141 -121Q-131 -123 -71 -127T12 -129Q90 -127 135 -84T188 25L276 932H78L84 1143H299L319 1356Q345 1651 713 1651Q759 1651 799 1648T938 1628L934 1440Q815 1458 775 1458Q663 1458 608 1423T545 1311L526 1133H879L874 932H506L416 -25Q397 -175 305 -254T70 -334Z"/><glyph unicode="ˆ" horiz-adv-x="897" d="M795 1227H612L449 1397L283 1227H102L332 1516H567L795 1227Z"/><glyph unicode="ˇ" horiz-adv-x="897" d="M102 1518H283L449 1348L612 1518H795L565 1229H330L102 1518Z"/><glyph unicode="˘" horiz-adv-x="0"/><glyph unicode="˙" horiz-adv-x="0"/><glyph unicode="˚" horiz-adv-x="897" d="M449 1632Q537 1632 598 1570T659 1419Q659 1331 597 1269T449 1206Q362 1206 300 1268T238 1419Q238 1507 299 1569T449 1632ZM449 1507Q413 1507 389 1482T365 1419Q365 1384 389 1357T449 1329Q483 1329 507 1356T532 1419Q532 1456 508 1481T449 1507Z"/><glyph unicode="˛" horiz-adv-x="0"/><glyph unicode="˜" horiz-adv-x="897" d="M324 1343Q251 1343 248 1229H96Q99 1357 149 1429T297 1501Q395 1501 461 1440Q500 1402 522 1390T573 1378Q607 1378 627 1402T649 1493H801Q798 1365 748 1293T602 1221Q495 1221 433 1282Q396 1317 373 1330T324 1343Z"/><glyph unicode="˝" horiz-adv-x="0"/><glyph unicode="̄" horiz-adv-x="897" d="M756 1266H139V1407H756V1266Z"/><glyph unicode="Δ" horiz-adv-x="0"/><glyph unicode="Ω" horiz-adv-x="0"/><glyph unicode="μ" horiz-adv-x="1408" d="M252 -424Q196 -424 168 -392T140 -280Q140 -124 156 100Q172 300 172 328L176 356V1176H368V320Q368 228 450 176T628 124Q760 124 858 190T1008 380V1176H1200V308L1220 0H1056L1020 176Q952 68 836 14T572 -40Q520 -40 444 -14T324 60Q324 -28 352 -112T380 -264Q380 -424 252 -424Z"/><glyph unicode="π" horiz-adv-x="0"/><glyph unicode="–" horiz-adv-x="1055" d="M1004 580H51V805H1004V580Z"/><glyph unicode="—" horiz-adv-x="1432" d="M1339 582H92V807H1339V582Z"/><glyph unicode="‘" horiz-adv-x="436" d="M365 1417V1090H84V1423L256 1640L369 1569L289 1423L301 1417H365Z"/><glyph unicode="’" horiz-adv-x="436" d="M76 1296V1626H356V1288L184 1075L72 1145L150 1290L139 1296H76Z"/><glyph unicode="‚" horiz-adv-x="436" d="M76 0V330H356V-4L184 -223L72 -154L150 -6L139 0H76Z"/><glyph unicode="“" horiz-adv-x="831" d="M752 1405V1090H485V1413L657 1640L770 1569L680 1413L690 1407L752 1405ZM352 1407V1090H84V1413L258 1640L371 1569L281 1413L291 1407H352Z"/><glyph unicode="”" horiz-adv-x="831" d="M489 1309V1626H758V1300L584 1075L471 1145L561 1303L551 1309H489ZM90 1309V1626H358V1300L184 1075L72 1145L162 1303L152 1309H90Z"/><glyph unicode="„" horiz-adv-x="831" d="M489 0V317H758V-6L584 -233L471 -164L561 -6L551 0H489ZM90 0V317H358V-6L184 -233L72 -164L162 -6L152 0H90Z"/><glyph unicode="†" horiz-adv-x="821" d="M793 864H526V-2L408 -215L297 -2V864H27V1071H297V1114L296 1275V1373L295 1626H528L526 1185V1071H793V864Z"/><glyph unicode="‡" horiz-adv-x="821" d="M526 707H778V524H528V-4L412 -215L303 -4V524H43V707H305V944H43V1128H303L301 1322V1626H530V1323L528 1128H778V944H526V707Z"/><glyph unicode="•" horiz-adv-x="782" d="M393 569Q321 569 270 620T219 745Q219 822 270 872T393 922Q466 922 517 872T569 745Q569 671 518 620T393 569Z"/><glyph unicode="…" horiz-adv-x="1937" d="M1749 0H1470V328H1749V0ZM1106 0H825V328H1106V0ZM459 0H180V328H459V0Z"/><glyph unicode="‰" horiz-adv-x="3015" d="M987 1184Q987 1080 929 989T770 846T541 795Q410 795 308 846T148 988T90 1184V1255Q90 1370 143 1459T299 1596T539 1645Q676 1645 777 1594T932 1453T987 1255V1184ZM1597 1587L590 0H444L1452 1587H1597ZM2953 373Q2953 194 2832 88T2501 -18Q2371 -18 2270 33T2113 176T2056 373V442Q2056 550 2111 640T2267 782T2503 834Q2635 834 2737 781T2896 636T2953 442V373ZM1982 373Q1982 195 1862 89T1532 -18Q1401 -18 1300 33T1142 175T1085 373V442Q1085 549 1141 640T1298 782T1534 834Q1666 834 1767 781T1925 637T1982 442V373ZM803 1190V1249Q803 1309 769 1363T674 1449T539 1481Q415 1481 344 1419T272 1249V1190Q272 1128 306 1074T402 988T539 956Q618 956 677 987T770 1073T803 1190ZM2769 381V438Q2769 498 2736 552T2642 638T2503 670Q2382 670 2310 606T2238 438V381Q2238 320 2272 265T2366 178T2503 145Q2626 145 2697 209T2769 381ZM1800 381V438Q1800 498 1767 552T1673 638T1534 670Q1411 670 1340 605T1268 438V381Q1268 321 1303 265T1398 177T1534 145Q1657 145 1728 209T1800 381Z"/><glyph unicode="‹" horiz-adv-x="659" d="M614 215L51 647V797L614 1231V999L238 723L614 449V215Z"/><glyph unicode="›" horiz-adv-x="659" d="M45 215V449L424 723L45 999V1231L608 797V647L45 215Z"/><glyph unicode="⁄" horiz-adv-x="0"/><glyph unicode="€" horiz-adv-x="1520" d="M1440 543L1437 488Q1430 339 1355 223T1143 45T827 -18Q616 -18 479 64T282 302T211 637H37V774H203V850H37V985H211Q222 1230 296 1368T499 1571T827 1636Q1071 1636 1228 1526T1421 1221Q1434 1147 1442 1055H1200L1198 1113Q1195 1268 1096 1357T827 1446Q753 1446 694 1432T591 1389T518 1317T473 1214T446 985H1077V850H442V774H1077V637H449Q458 428 502 345T633 218T836 174Q988 174 1085 254T1194 465L1200 543H1440Z"/><glyph unicode="℗" horiz-adv-x="0"/><glyph unicode="™" horiz-adv-x="1751" d="M1501 1040V1376Q1501 1470 1399 1470Q1349 1470 1317 1440T1284 1358V1040H1106V1389Q1106 1427 1077 1448T1004 1470Q954 1470 920 1436T885 1358V1040H705V1632H883V1540Q900 1587 958 1614T1087 1642Q1162 1642 1206 1611T1264 1532Q1279 1583 1336 1612T1473 1642Q1570 1642 1628 1591T1686 1454V1040H1501ZM645 1473H401V1288Q401 1245 427 1217T510 1188H561L608 1190V1042Q593 1036 442 1036Q346 1036 291 1085T236 1219V1473H18V1632H645V1473Z"/><glyph unicode="Ω" horiz-adv-x="0"/><glyph unicode="∂" horiz-adv-x="0"/><glyph unicode="∆" horiz-adv-x="0"/><glyph unicode="∏" horiz-adv-x="0"/><glyph unicode="∑" horiz-adv-x="0"/><glyph unicode="−" horiz-adv-x="0"/><glyph unicode="∕" horiz-adv-x="0"/><glyph unicode="∙" horiz-adv-x="643" d="M465 641H174V969H465V641Z"/><glyph unicode="√" horiz-adv-x="0"/><glyph unicode="∞" horiz-adv-x="0"/><glyph unicode="∫" horiz-adv-x="0"/><glyph unicode="≈" horiz-adv-x="0"/><glyph unicode="≠" horiz-adv-x="0"/><glyph unicode="≤" horiz-adv-x="0"/><glyph unicode="≥" horiz-adv-x="0"/><glyph unicode="◊" horiz-adv-x="0"/><glyph unicode="" horiz-adv-x="0"/><glyph unicode="ﬀ" horiz-adv-x="1534" d="M459 936V0H233V936H31V1126H233V1333Q233 1487 319 1566T573 1645Q669 1645 768 1634L809 1630V1436Q732 1450 643 1450Q549 1448 502 1413T455 1300V1124H936V1307Q936 1468 1025 1556T1274 1645Q1371 1645 1469 1634L1509 1630V1436Q1432 1450 1343 1450Q1247 1448 1202 1414T1157 1305V1124H1503V936H1159V0H936V936H459Z"/><glyph unicode="ﬁ" horiz-adv-x="1354" d="M944 938H461V0H236V936H31V1126H236V1335Q236 1488 324 1566T584 1645Q615 1645 650 1643T718 1639T777 1634T817 1630V1440L787 1444Q707 1454 653 1454Q554 1452 507 1415T459 1296V1124H1169V109Q1169 10 1182 0H956Q944 19 944 102V938Z"/><glyph unicode="ﬂ" horiz-adv-x="1356" d="M31 936V1126H233V1333Q233 1487 319 1566T573 1645Q604 1645 641 1643T712 1639T775 1634T817 1630V1440L786 1444Q699 1454 645 1454Q549 1452 502 1417T455 1307V1124H809V936H459V0H233V936H31ZM1180 0H958Q944 7 944 76V1513Q944 1608 940 1632H1159Q1165 1610 1165 1532V104Q1165 9 1180 0Z"/><glyph unicode="ﬃ" horiz-adv-x="2052" d="M1642 938H1159V0H936V938H459V0H233V936H31V1126H233V1333Q233 1487 319 1566T573 1645Q669 1645 768 1634L809 1630V1436Q732 1450 643 1450Q549 1448 502 1413T455 1300V1124H936V1307Q936 1468 1025 1556T1274 1645Q1371 1645 1469 1634L1509 1630V1436Q1432 1450 1343 1450Q1247 1448 1202 1414T1157 1305V1124H1866V109Q1866 10 1882 0H1661Q1642 6 1642 102V938Z"/><glyph unicode="ﬄ" horiz-adv-x="2056" d="M459 936V0H233V936H31V1126H233V1333Q233 1487 319 1566T573 1645Q669 1645 768 1634L809 1630V1436Q732 1450 643 1450Q549 1448 502 1413T455 1300V1124H936V1307Q936 1468 1025 1556T1274 1645Q1305 1645 1342 1643T1415 1639T1478 1634T1520 1630V1436Q1436 1450 1343 1450Q1247 1448 1202 1414T1157 1305V1124H1509V936H1159V0H936V936H459ZM1878 0H1659Q1645 7 1645 76V1513Q1645 1604 1638 1632H1860Q1866 1610 1866 1532V104Q1866 9 1878 0Z"/></font>
</defs>
</svg>
