<?xml version="1.0" encoding="UTF-8"?><svg xmlns="http://www.w3.org/2000/svg" width="100%" height="100%"><defs><font id="web" horiz-adv-x="1189"><!--



NOTICE: This font software is the valuable property 
of Webtype LLC, The Font Bureau, Webtype and/or its 
suppliers and its use by you is covered under the terms 
of the Web Font license agreement between you and Webtype 
LLC. You may ONLY use this font software with the licensed 
web site. Except as specifically permitted by the license, 
you may not copy this font software. If you have any 
questions, please contact Webtype.com. 

For more information, please visit http://www.webtype.com/store/license/?id=23

Licensed to: slice.ca

Serial number: SH-1456
--><font-face font-family="" units-per-em="2048" panose-1="2 0 5 5 3 0 0 2 0 4" ascent="2144" descent="-492" alphabetic="0"/><missing-glyph horiz-adv-x="557"/><glyph unicode=" " horiz-adv-x="557"/><glyph unicode="!" horiz-adv-x="555" d="M371 1618L350 393H205L184 1618H371ZM369 0H186V260H369V0Z"/><glyph unicode="&quot;" horiz-adv-x="795" d="M676 1618L668 926H520L512 1618H676ZM283 1618L270 926H127L117 1618H283Z"/><glyph unicode="#" horiz-adv-x="1118" d="M1071 1036L1057 911H823Q809 855 776 653H1028L1014 530H758L674 -41H573L657 530H383L299 -41H199L283 530H43L57 653H299Q327 823 346 911H86L100 1036H365Q383 1126 442 1561H545L465 1036H741Q766 1163 817 1561H920Q866 1160 842 1036H1071ZM721 911H446L401 653H676Q702 835 721 911Z"/><glyph unicode="$" horiz-adv-x="1350" d="M621 10Q474 16 371 46T201 131T102 264T70 451H223Q223 352 259 286T378 184T621 139V782L520 813Q279 886 184 978T88 1225Q88 1406 222 1496T621 1595V1651H719V1593Q934 1584 1049 1510T1206 1284Q1216 1250 1221 1149H1067Q1067 1232 1055 1266Q1026 1361 943 1406T719 1456V903L767 889Q940 843 1051 784T1211 640T1260 420Q1260 235 1121 129T719 10V-98H621V10ZM621 1462Q423 1456 332 1401T240 1225Q240 1125 323 1058T621 932V1462ZM719 137Q909 145 1005 217T1102 412Q1102 509 1066 568T950 671T719 756V137Z"/><glyph unicode="%" horiz-adv-x="2044" d="M965 1184Q965 1080 910 990T757 847T532 795Q405 795 306 847T152 990T96 1184V1253Q96 1367 149 1457T300 1596T530 1645Q663 1645 761 1595T912 1455T965 1253V1184ZM1559 1581L555 0H444L1448 1581H1559ZM1944 375Q1944 260 1892 171T1741 33T1507 -16Q1379 -16 1281 35T1128 178T1073 375V444Q1073 551 1127 641T1280 784T1507 836Q1635 836 1734 783T1888 639T1944 444V375ZM834 1188V1251Q834 1363 750 1441T530 1520Q387 1520 307 1450T227 1253V1188Q227 1116 266 1052T375 950T530 913Q624 913 692 948T797 1047T834 1188ZM1812 379V442Q1812 515 1773 578T1665 677T1507 713Q1365 713 1285 639T1204 444V379Q1204 310 1243 246T1351 144T1507 106Q1604 106 1672 141T1776 238T1812 379Z"/><glyph unicode="&amp;" horiz-adv-x="1642" d="M668 772Q824 599 1192 328Q1335 474 1352 731H1505Q1499 587 1448 461T1303 238Q1461 114 1614 0H1370L1270 70L1178 137Q1075 65 936 25T649 -16Q343 -16 197 72T45 344V403Q46 473 85 534T198 654T436 803Q345 914 302 1013T256 1225V1288Q257 1385 310 1465T460 1589T678 1634Q786 1634 871 1590T1008 1466T1065 1294V1235Q1063 1150 1021 1076T901 932T668 772ZM573 883Q762 983 833 1062T905 1229V1272Q903 1367 838 1427T670 1487Q552 1487 483 1426T410 1260L409 1240L410 1221Q412 1143 448 1065T573 883ZM532 686Q381 605 324 562T236 473T205 377Q205 251 308 189T643 127Q879 127 1059 236Q712 497 532 686Z"/><glyph unicode="'" horiz-adv-x="618" d="M395 1618L383 918H231L221 1618H395Z"/><glyph unicode="(" horiz-adv-x="651" d="M627 -141H459Q346 -32 258 117T127 420T84 737Q84 897 131 1063T270 1382T459 1618H627Q528 1528 440 1378T304 1060T256 737Q256 569 303 408T434 106T627 -141Z"/><glyph unicode=")" horiz-adv-x="651" d="M586 737Q586 495 491 269T211 -141H43Q152 -38 235 102T367 406T416 737Q416 895 367 1062T231 1377T43 1618H211Q308 1537 400 1381T539 1060T586 737Z"/><glyph unicode="*" horiz-adv-x="1167" d="M629 1298L920 1438L965 1311L657 1194L895 930L795 844L575 1130L365 846L264 934L492 1194L178 1311L221 1438L522 1298L512 1638H637L629 1298Z"/><glyph unicode="+" horiz-adv-x="1167" d="M1075 692H657V293H512V692H92V842H512V1231H657V842H1075V692Z"/><glyph unicode="," horiz-adv-x="623" d="M406 -8L299 -193L193 -180L279 4L256 0H205V279H406V-8Z"/><glyph unicode="-" horiz-adv-x="924" d="M895 680H29V842H895V680Z"/><glyph unicode="." horiz-adv-x="623" d="M414 0H203V279H414V0Z"/><glyph unicode="/" horiz-adv-x="606" d="M655 1632L37 -326H-63L553 1632H655Z"/><glyph unicode="0" horiz-adv-x="1364" d="M684 1636Q836 1636 955 1589T1149 1452T1252 1229T1280 809Q1280 614 1258 459T1164 195T974 34T682 -18Q467 -18 340 57T149 300T86 809Q86 1097 115 1232T220 1456T415 1590T684 1636ZM1110 809Q1110 931 1102 1049T1083 1217Q1053 1346 947 1416T682 1487Q519 1487 413 1415T279 1217Q254 1099 254 809Q254 494 295 370T433 188T684 129Q843 129 939 193T1075 389Q1089 435 1099 557T1110 809Z"/><glyph unicode="1" horiz-adv-x="932" d="M682 0H520V1409L102 1331V1473Q269 1503 363 1526T501 1570T561 1626H682V0Z"/><glyph unicode="2" horiz-adv-x="1284" d="M1241 0H70V147Q482 396 655 541T917 830T1006 1135V1178Q1006 1324 907 1405T627 1487Q441 1487 337 1401T233 1133H72Q72 1206 76 1237Q98 1427 245 1531T639 1636Q894 1636 1035 1523T1182 1208L1180 1126Q1175 878 959 633T311 150H1241V0Z"/><glyph unicode="3" horiz-adv-x="1327" d="M903 866Q1064 851 1163 741T1262 457Q1262 231 1104 107T657 -18Q372 -18 227 108T82 487H244Q244 123 659 123Q875 123 982 205T1090 459Q1090 611 995 692T715 774H393V915H692Q1026 915 1026 1208Q1026 1347 933 1418T668 1489Q533 1489 452 1455T333 1350T295 1149H137Q137 1395 271 1515T674 1636Q837 1636 953 1588T1129 1451T1190 1241Q1190 1083 1113 984T903 866Z"/><glyph unicode="4" horiz-adv-x="1294" d="M1282 401H1022V0H864V401H41V571L848 1632H1022V551H1282V401ZM864 551V1427L205 551H864Z"/><glyph unicode="5" horiz-adv-x="1337" d="M680 -18Q432 -18 284 77T102 356Q94 398 94 483H256Q256 385 281 325T359 221T491 154T664 131Q1092 131 1092 535Q1092 742 993 844T690 946Q553 946 455 897T309 754H141V1614H1165V1460H291V891Q340 988 456 1043T735 1098Q986 1098 1126 951T1266 547Q1266 274 1113 128T680 -18Z"/><glyph unicode="6" horiz-adv-x="1331" d="M709 -18Q526 -18 414 29T232 174T127 427T92 811Q92 1117 151 1291T338 1551T674 1636Q931 1636 1063 1540T1206 1237H1051Q1040 1335 1000 1385T881 1461T672 1487Q515 1487 426 1428T295 1239T254 858Q311 937 445 987T754 1038Q992 1038 1124 902T1257 522Q1257 263 1114 123T709 -18ZM1098 514Q1098 895 711 895Q594 895 498 867T338 792T256 698Q256 493 303 368T445 184T709 125Q894 125 996 226T1098 514Z"/><glyph unicode="7" horiz-adv-x="1108" d="M1096 1466L381 0H203L934 1464H10V1618H1096V1466Z"/><glyph unicode="8" horiz-adv-x="1327" d="M662 -18Q385 -18 226 113T66 469Q66 641 166 758T430 895Q306 917 234 1011T162 1247Q162 1365 221 1454T392 1590T662 1638Q818 1638 931 1591T1102 1456T1161 1251Q1161 1108 1088 1011T897 895Q1067 871 1163 756T1260 469Q1260 243 1099 113T662 -18ZM1012 1233Q1012 1358 920 1426T662 1495Q488 1495 399 1427T309 1226Q309 1093 397 1029T662 965Q840 965 926 1030T1012 1233ZM1106 475Q1106 644 990 734T662 825Q447 825 333 732T219 475Q219 305 334 215T662 125Q885 125 995 215T1106 475Z"/><glyph unicode="9" horiz-adv-x="1331" d="M655 -18Q214 -18 141 270Q130 316 125 381H281Q281 313 322 252T445 161T659 131Q799 131 896 190T1035 365T1077 758Q1012 672 880 621T584 569Q345 569 214 702T83 1106Q83 1208 100 1272Q148 1450 289 1543T651 1636Q858 1636 986 1556T1177 1305T1239 807Q1239 543 1212 416Q1169 203 1029 93T655 -18ZM1075 920Q1070 1111 1046 1208T972 1368T842 1463T653 1495Q462 1495 354 1398T244 1113Q244 974 283 888T409 758T627 713Q743 713 837 743T993 821T1075 920Z"/><glyph unicode=":" horiz-adv-x="618" d="M410 848H219V1106H410V848ZM410 0H219V258H410V0Z"/><glyph unicode=";" horiz-adv-x="618" d="M410 848H219V1106H410V848ZM412 -8L289 -197L207 -154L289 8L264 0H217V264H412V-8Z"/><glyph unicode="&lt;" horiz-adv-x="1251" d="M1133 430V264L106 680V827L1133 1241V1073L285 754L1133 430Z"/><glyph unicode="=" horiz-adv-x="1174" d="M1100 848H76V997H1100V848ZM1100 518H76V668H1100V518Z"/><glyph unicode="&gt;" horiz-adv-x="1251" d="M111 262V428L958 750L111 1073V1239L1137 825V678L111 262Z"/><glyph unicode="?" horiz-adv-x="1171" d="M612 393H467V403Q467 518 497 610T586 773T781 935Q875 998 916 1058T958 1220Q958 1362 868 1426T573 1491Q471 1491 398 1469T276 1401T214 1277T199 1174H41Q41 1225 59 1313T116 1457T221 1554T379 1615T596 1636Q870 1636 1001 1540T1132 1236Q1132 1099 1085 1019T942 872L850 810Q751 742 705 686T636 558T612 393ZM631 0H449V260H631V0Z"/><glyph unicode="@" horiz-adv-x="1927" d="M1407 240Q1318 240 1262 295T1206 438V444Q1153 346 1052 294T834 242Q678 242 588 338T496 598Q496 756 560 893T740 1105T1004 1180Q1100 1180 1175 1131T1278 1006L1317 1143H1444L1327 645Q1310 567 1310 509Q1310 346 1444 346Q1579 346 1663 486T1747 852Q1747 1054 1660 1205T1416 1434T1049 1511Q795 1511 599 1404T295 1099T187 641Q187 271 382 70T903 -131Q1311 -131 1552 90L1602 23Q1461 -100 1292 -154T903 -209Q661 -209 475 -108T190 185T91 643Q91 928 212 1143T553 1475T1055 1591Q1291 1591 1469 1505T1745 1250T1843 856Q1843 673 1790 531T1637 315T1407 240ZM1240 871Q1240 921 1209 967T1128 1040T1014 1067Q908 1067 821 1010T681 848T629 614Q629 490 690 422T866 354Q993 354 1076 420T1188 612L1198 656Q1240 845 1240 871Z"/><glyph unicode="A" horiz-adv-x="1415" d="M334 426L176 0H6L621 1618H821L1409 0H1239L1083 426H334ZM1032 573L766 1311L719 1456L668 1311L389 573H1032Z"/><glyph unicode="B" horiz-adv-x="1524" d="M989 0H193V1618H918Q1050 1618 1145 1564T1282 1421T1325 1217Q1325 1076 1264 967T1108 838Q1197 827 1275 770T1388 627T1423 428Q1423 228 1310 114T989 0ZM1157 1186Q1157 1265 1127 1332T1037 1434T891 1470H354V889H948Q1042 889 1099 975T1157 1186ZM1255 438Q1255 592 1175 668T975 745H354V150H971Q1110 150 1182 221T1255 438Z"/><glyph unicode="C" horiz-adv-x="1520" d="M1442 557Q1427 392 1343 256T1124 51T801 -18Q547 -18 395 74T169 351T94 815Q94 1100 164 1273T392 1542T786 1638Q1092 1638 1259 1481T1442 1053H1272Q1259 1201 1196 1294T1033 1432T780 1477Q593 1477 478 1400T314 1183T266 813Q266 578 322 429T493 207T795 133Q1004 133 1127 241T1276 557H1442Z"/><glyph unicode="D" horiz-adv-x="1507" d="M852 0H193V1618H834Q1062 1618 1188 1544T1365 1310T1417 831Q1417 487 1369 326T1200 83T852 0ZM1251 829Q1251 984 1238 1097T1199 1275T1119 1383T995 1444T823 1462H354V156H819Q935 156 1006 176T1128 239T1202 349T1238 514T1251 829Z"/><glyph unicode="E" horiz-adv-x="1362" d="M1247 0H193V1618H1239V1462H354V895H1204V739H354V154H1247V0Z"/><glyph unicode="F" horiz-adv-x="1317" d="M1239 1462H356V895H1196V739H356V0H193V1618H1239V1462Z"/><glyph unicode="G" horiz-adv-x="1495" d="M1391 0H1253L1245 227Q1208 154 1139 99T975 12T756 -20Q512 -20 370 69T161 342T94 809Q94 1240 256 1439T766 1638Q1054 1638 1213 1494T1382 1083H1221Q1208 1286 1097 1384T770 1483Q576 1483 469 1417T312 1207T262 805Q262 556 312 409T469 194T772 127Q937 127 1057 202T1229 416Q1238 446 1238 570V633L1237 711H684V862H1391V0Z"/><glyph unicode="H" horiz-adv-x="1556" d="M1364 0H1202V737H356V0H193V1618H356V895H1202V1618H1364V0Z"/><glyph unicode="I" horiz-adv-x="553" d="M360 0H193V1618H360V0Z"/><glyph unicode="J" horiz-adv-x="1030" d="M852 428Q852 216 730 102T377 -12Q165 -12 25 16V166Q84 154 175 146T338 137Q512 137 600 220T688 465V1618H852V428Z"/><glyph unicode="K" horiz-adv-x="1391" d="M1368 0H1167L532 801L356 627V0H193V1618H356V829L1151 1618H1348L649 915L1368 0Z"/><glyph unicode="L" horiz-adv-x="1245" d="M1202 0H193V1618H358V156H1202V0Z"/><glyph unicode="M" horiz-adv-x="1868" d="M1677 0H1522V1372L1018 0H838L348 1372V0H193V1618H428L932 205L1446 1618H1677V0Z"/><glyph unicode="N" horiz-adv-x="1542" d="M1356 0H1165L350 1378V0H193V1618H395L1200 254V1618H1356V0Z"/><glyph unicode="O" horiz-adv-x="1554" d="M778 1638Q1015 1638 1168 1544T1392 1272T1462 815Q1462 530 1386 345T1163 70T776 -20Q432 -20 263 193T94 813Q94 1243 273 1440T778 1638ZM780 131Q954 131 1071 205T1242 429T1296 811Q1296 1005 1258 1144T1148 1353T987 1453T778 1483Q649 1483 560 1449T400 1339T294 1118T262 807Q262 583 319 432T487 206T780 131Z"/><glyph unicode="P" horiz-adv-x="1442" d="M1348 1110Q1348 934 1300 826T1156 666T879 608H356V0H193V1618H887Q1136 1618 1242 1498T1348 1110ZM1180 1108Q1180 1242 1151 1319T1062 1430T877 1464H356V762H872Q1003 762 1063 795T1152 902T1180 1108Z"/><glyph unicode="Q" horiz-adv-x="1554" d="M969 16Q1014 -27 1114 -78T1276 -137L1190 -266Q1126 -256 1037 -211T877 -112T772 -14L743 -16H713Q538 -13 391 77T169 349T94 813Q94 1246 273 1442T778 1638Q1012 1638 1164 1549T1389 1285T1462 815Q1462 650 1435 513T1355 277T1195 104T969 16ZM780 129Q1044 129 1170 288T1296 813Q1296 1179 1163 1332T778 1485Q520 1485 391 1327T262 807Q262 588 316 435T488 205T780 129Z"/><glyph unicode="R" horiz-adv-x="1497" d="M1321 1169Q1321 1039 1298 962T1211 829T1063 764L1440 0H1251L901 729H354V0H193V1618H928Q1131 1618 1226 1506T1321 1169ZM1153 1153Q1153 1295 1125 1353T1035 1439T895 1464H354V874H926Q1036 874 1094 931T1153 1153Z"/><glyph unicode="S" horiz-adv-x="1473" d="M1360 438Q1360 220 1206 100T766 -20Q451 -20 284 104T109 467H276Q295 127 762 127Q972 127 1080 200T1188 418Q1188 518 1138 585T985 691T658 768Q360 817 244 923T127 1219Q127 1348 194 1441T391 1585T707 1636Q994 1636 1146 1526T1335 1174H1167Q1136 1339 1027 1413T698 1487Q508 1487 403 1421T297 1229Q297 1137 342 1075T475 976T829 894Q1024 861 1135 810T1303 666T1360 438Z"/><glyph unicode="T" horiz-adv-x="1262" d="M1255 1464H715V0H549V1464H8V1618H1255V1464Z"/><glyph unicode="U" horiz-adv-x="1526" d="M1356 446Q1356 230 1199 106T768 -18Q482 -18 326 103T170 453V1618H334V455Q334 301 444 216T772 131Q961 131 1076 217T1192 453V1618H1356V446Z"/><glyph unicode="V" horiz-adv-x="1423" d="M1421 1618L813 0H610L2 1618H176L715 180L1251 1618H1421Z"/><glyph unicode="W" horiz-adv-x="2048" d="M2046 1618L1579 0H1380L1026 1407L664 0H467L2 1618H176L573 207L930 1618H1124L1481 207L1882 1618H2046Z"/><glyph unicode="X" horiz-adv-x="1333" d="M670 692L188 0H2L582 827L45 1618H236L676 965L1133 1618H1315L764 831L1329 0H1141L670 692Z"/><glyph unicode="Y" horiz-adv-x="1442" d="M1438 1618L793 551V0H625V549L6 1618H184L711 715L1266 1618H1438Z"/><glyph unicode="Z" horiz-adv-x="1276" d="M1227 0H72V145L1001 1464H115V1618H1198V1479L260 152H1227V0Z"/><glyph unicode="[" horiz-adv-x="815" d="M717 -354H184V1618H717V1489H332V-229H717V-354Z"/><glyph unicode="\" horiz-adv-x="606" d="M-47 1632H57L674 -326H571L-47 1632Z"/><glyph unicode="]" horiz-adv-x="838" d="M117 -354V-229H498V1491H117V1618H645V-354H117Z"/><glyph unicode="^" horiz-adv-x="1206" d="M614 1509L172 1112L74 1212L532 1630H696L1153 1212L1055 1112L614 1509Z"/><glyph unicode="_" horiz-adv-x="909" d="M907 -338H0V-195H907V-338Z"/><glyph unicode="`" horiz-adv-x="858" d="M590 1225H436L207 1499H379L590 1225Z"/><glyph unicode="a" horiz-adv-x="1247" d="M1128 0H983Q978 0 971 51T964 138L965 162Q854 -12 516 -12Q316 -12 205 65T92 283V334Q94 442 160 517T353 634T690 675Q820 675 963 659L958 819Q950 922 874 968T633 1014Q521 1014 454 994T340 919T293 774H147Q158 925 223 1002T387 1114T631 1149Q863 1149 977 1078T1104 856Q1109 762 1111 620L1108 227Q1108 156 1114 87T1128 0ZM965 545Q828 560 732 560Q569 560 461 535T299 460T246 324Q246 246 286 202T392 137T559 115Q659 115 737 135T869 206T944 318T965 518V545Z"/><glyph unicode="b" horiz-adv-x="1335" d="M711 1149Q989 1149 1119 998T1249 580Q1249 376 1181 243T997 50T713 -10Q567 -10 460 36T301 174L291 0H150V1632H301V942Q330 1032 446 1090T711 1149ZM692 1010Q589 1010 510 979T381 890T314 752T297 541Q297 471 301 429T322 338Q358 236 453 180T682 123Q824 123 915 169T1051 311T1096 569Q1096 729 1053 821T923 961T692 1010Z"/><glyph unicode="c" horiz-adv-x="1260" d="M1176 727H1024Q1024 856 923 930T645 1004Q437 1004 335 896T233 563Q233 331 331 227T649 123Q998 123 1028 385H1176Q1162 189 1025 86T643 -18Q78 -18 78 565Q78 846 222 997T641 1149Q803 1149 922 1102T1108 956T1176 727Z"/><glyph unicode="d" horiz-adv-x="1313" d="M631 1143Q768 1143 871 1096T1018 965V1622H1169V113Q1169 70 1176 0H1032L1014 168Q966 79 857 31T590 -18Q344 -18 213 127T82 557Q82 829 227 986T631 1143ZM627 995Q441 995 339 885T236 559Q236 113 623 113Q825 113 922 222T1020 553Q1020 782 929 888T627 995Z"/><glyph unicode="e" horiz-adv-x="1239" d="M1180 344Q1151 171 1012 77T647 -18Q80 -18 80 567Q80 844 227 996T637 1149Q909 1149 1049 1001T1189 561L1188 502H231Q237 314 341 216T649 117Q818 117 918 176T1030 344H1180ZM1032 633Q1032 1010 637 1010Q444 1010 338 912T231 633H1032Z"/><glyph unicode="f" horiz-adv-x="797" d="M786 987H406V0H250V987H33V1126H250V1331Q250 1477 336 1562T573 1647Q672 1647 795 1628V1487Q678 1505 616 1505Q403 1505 403 1315V1124H786V987Z"/><glyph unicode="g" horiz-adv-x="1188" d="M580 1155Q687 1155 782 1131T940 1057Q975 1090 1053 1111T1210 1133H1223V1028Q1169 1028 1095 1014T997 979Q1073 884 1073 741Q1073 559 948 460T586 360Q513 360 431 375T291 418Q227 410 227 354Q227 299 319 279T614 258Q918 256 1054 189T1190 -35Q1190 -193 1049 -264T602 -336Q308 -336 175 -271T41 -61Q41 22 93 87T219 174Q163 180 130 222T96 322Q96 375 131 415T217 467Q164 499 131 577T98 754Q98 940 228 1047T580 1155ZM584 1022Q426 1022 336 951T246 752Q246 483 582 483Q742 483 831 551T920 752Q920 1022 584 1022ZM596 -207Q828 -207 934 -168T1040 -39Q1040 30 994 63T840 112T453 133Q386 134 365 137Q286 124 233 77T180 -35Q180 -125 283 -166T596 -207Z"/><glyph unicode="h" horiz-adv-x="1255" d="M1130 0H975Q969 3 969 104V748Q969 879 896 940T668 1001Q505 1001 404 923T303 719V0H150V1632H301V944Q335 1042 445 1095T715 1149Q913 1149 1018 1052T1124 774V107Q1124 56 1125 29T1130 0Z"/><glyph unicode="i" horiz-adv-x="465" d="M317 1284H150V1513H317V1284ZM322 0H168Q156 7 156 74V1126H311V80Q311 7 322 0Z"/><glyph unicode="j" horiz-adv-x="477" d="M332 1284H162V1513H332V1284ZM324 -43Q324 -204 247 -287T16 -371Q-12 -371 -48 -367T-100 -356V-223Q-43 -233 -10 -233Q170 -233 170 -33V1126H324V-43Z"/><glyph unicode="k" horiz-adv-x="1153" d="M1149 0H975L580 639L303 385V0H150V1632H303V567L918 1126H1106L692 741L1149 0Z"/><glyph unicode="l" horiz-adv-x="451" d="M309 0H158Q150 5 150 63V1522Q150 1604 145 1634H297Q303 1616 303 1540V106Q303 7 309 0Z"/><glyph unicode="m" horiz-adv-x="1892" d="M1610 0Q1602 0 1602 579V748Q1602 882 1536 944T1341 1006Q1195 1006 1111 936T1026 743V0H881V768Q881 877 815 941T608 1006Q523 1006 453 970T343 870T303 737V0H150V1126H297V952Q328 1043 427 1095T659 1147Q791 1147 878 1096T991 948Q1027 1041 1127 1094T1372 1147Q1548 1147 1645 1056T1743 803V611Q1743 8 1755 0H1610Z"/><glyph unicode="n" horiz-adv-x="1255" d="M1128 0H979Q973 0 972 34T970 224T969 438V743Q969 1001 662 1001Q506 1001 405 924T303 717V0H150V1126H297V952Q333 1047 439 1098T713 1149Q906 1149 1015 1049T1124 770Q1124 292 1130 34Q1130 0 1128 0Z"/><glyph unicode="o" horiz-adv-x="1305" d="M1227 565Q1227 294 1075 138T655 -18Q387 -18 234 135T80 565Q80 741 147 872T345 1076T655 1149Q925 1149 1076 997T1227 565ZM1075 565Q1075 787 971 895T653 1004Q454 1004 343 889T231 565Q231 351 337 237T655 123Q855 123 965 238T1075 565Z"/><glyph unicode="p" horiz-adv-x="1317" d="M1243 573Q1243 291 1111 143T729 -6Q563 -6 457 41T303 162V-354H150V1126H297L301 940Q341 1037 448 1093T707 1149Q968 1149 1105 999T1243 573ZM1087 565Q1087 793 991 897T690 1001Q487 1001 393 892T299 565Q299 342 394 237T700 131Q900 131 993 237T1087 565Z"/><glyph unicode="q" horiz-adv-x="1311" d="M1171 -354H1028L1016 -340V170Q970 83 859 33T602 -18Q353 -18 218 129T82 551Q82 825 220 984T602 1143Q761 1143 868 1090T1024 938L1022 1128H1163V-209Q1163 -318 1171 -354ZM1020 565Q1020 784 925 890T635 997Q436 997 336 890T236 561Q236 334 332 226T637 117Q1020 117 1020 565Z"/><glyph unicode="r" horiz-adv-x="924" d="M905 1126V963Q809 993 666 993Q565 993 482 947T352 818T305 627V0H150V1126H303V903Q330 1010 441 1079T690 1149Q832 1149 905 1126Z"/><glyph unicode="s" horiz-adv-x="1214" d="M1120 309Q1120 139 998 61T618 -18Q418 -18 308 14T149 120T100 328H252Q252 241 286 197T396 133T623 113Q801 113 885 157T969 303Q969 381 905 427T701 497L545 524Q370 553 289 593T165 697T121 858Q121 996 241 1073T584 1151Q834 1151 956 1067T1079 799H928Q928 872 910 909T850 970T745 1004T588 1016Q429 1016 351 976T272 850Q272 778 337 734T540 668Q733 638 828 615T984 554T1083 458T1120 309Z"/><glyph unicode="t" horiz-adv-x="758" d="M717 983H352V307Q352 208 392 168T543 127Q629 127 707 139V6Q679 -3 616 -8T492 -14Q339 -14 268 53T197 258V983H-6V1126H190Q194 1130 197 1183T201 1364L350 1366V1126H717V983Z"/><glyph unicode="u" horiz-adv-x="1255" d="M971 0L965 152Q916 64 819 24T549 -16Q141 -16 141 309V635Q141 814 140 967T133 1126H291Q295 926 295 447V360Q295 239 369 178T602 117Q763 117 863 186T963 375V1126H1114V197Q1114 24 1120 0H971Z"/><glyph unicode="v" horiz-adv-x="1206" d="M1188 1126L698 0H508L20 1126H186L606 141L1028 1126H1188Z"/><glyph unicode="w" horiz-adv-x="1907" d="M1903 1126L1477 0H1292L1131 451Q971 904 971 915L958 979L946 915Q946 904 629 0H442L20 1126H176L541 133L877 1126H1051L1393 133L1753 1126H1903Z"/><glyph unicode="x" horiz-adv-x="1139" d="M578 684L952 1126H1124L662 578L1130 0H948L571 465L180 0H10L492 571L41 1126H227L578 684Z"/><glyph unicode="y" horiz-adv-x="1204" d="M1186 1126L528 -354H367L524 2L20 1126H186L608 170Q608 174 1028 1126H1186Z"/><glyph unicode="z" horiz-adv-x="1051" d="M1004 0H63V129L788 985H76V1126H973V985L258 139H1004V0Z"/><glyph unicode="{" horiz-adv-x="918" d="M827 -332H659Q510 -332 428 -256T346 -39Q346 39 360 189Q373 339 373 420Q373 668 113 668V799Q373 799 373 1038Q373 1095 360 1180Q346 1264 346 1337Q346 1464 428 1541T657 1618H827V1487L751 1490Q619 1490 556 1443T492 1292L497 1224Q514 1059 514 1012Q514 893 460 821T303 737Q407 728 460 654T514 457Q514 389 503 233Q489 47 489 -10Q489 -109 553 -156T746 -203L827 -199V-332Z"/><glyph unicode="|" horiz-adv-x="610" d="M369 -410H242V1638H369V-410Z"/><glyph unicode="}" horiz-adv-x="918" d="M88 -332V-199L169 -203Q298 -203 363 -156T428 -4Q428 49 415 233Q403 389 403 457Q403 580 456 654T614 737Q513 748 458 819T403 1012Q403 1059 423 1224L428 1287Q428 1395 363 1442T164 1490L88 1487V1618H258Q403 1618 487 1543T571 1337Q571 1269 558 1180Q545 1090 545 1038Q545 918 609 859T807 799V668Q545 668 545 420Q545 348 558 189Q571 30 571 -39Q571 -181 489 -256T256 -332H88Z"/><glyph unicode="~" horiz-adv-x="1163" d="M315 905Q147 905 141 578L14 582Q20 1053 309 1053Q386 1053 451 1009T600 840Q668 739 698 708T761 658T838 639Q919 639 968 715T1020 936L1141 930Q1137 718 1061 609T846 500Q751 500 677 553T501 766Q454 837 410 871T315 905Z"/><glyph unicode=" " horiz-adv-x="279"/><glyph unicode="¡" horiz-adv-x="555" d="M184 1620H369V1360H184V1620ZM184 -16L203 1227H350L369 -16H184Z"/><glyph unicode="¢" horiz-adv-x="1231" d="M596 1378V1511H702V1378Q1039 1363 1145 1143Q1175 1074 1190 963H1042L1032 1024Q1022 1081 980 1136T869 1223T702 1260V342Q847 351 939 427T1044 623H1190Q1175 493 1109 409T941 280T702 227V74H596V229Q86 263 86 803Q86 1074 213 1219T596 1378ZM596 1260Q483 1247 407 1202T286 1057T242 801Q242 741 253 672T282 555T347 457T457 379T596 342V1260Z"/><glyph unicode="£" horiz-adv-x="1343" d="M287 774Q176 1031 176 1223Q176 1427 304 1531T676 1636Q918 1636 1051 1545T1206 1257L1208 1087H1044V1125Q1044 1222 1040 1262Q1006 1489 682 1489Q511 1489 428 1417T344 1196Q344 1128 366 1038T457 774H1026V641H498Q532 529 532 438Q532 326 476 253T299 137H1239V0H115V150Q257 206 315 271T373 432Q373 512 330 641H127V774H287Z"/><glyph unicode="¤" horiz-adv-x="1152" d="M1056 392L940 284L740 500Q668 452 572 452Q480 452 408 500L208 284L92 392L300 608Q272 648 262 686T252 780Q252 883 300 952L92 1168L208 1276L408 1060Q480 1108 572 1108Q668 1108 740 1060L944 1276L1060 1156L852 952Q880 912 890 872T900 780Q900 684 848 608L1056 392ZM748 780Q748 860 698 910T572 960Q496 960 448 910T400 780Q400 700 450 652T572 604Q652 604 700 652T748 780Z"/><glyph unicode="¥" horiz-adv-x="1466" d="M641 387H106V492H641V563L6 1618H184Q352 1345 541 1029T721 705Q721 717 789 831T999 1171T1284 1618H1460L801 569V492H1331V387H801V291H1331V184H801V0H641V184H106V291H641V387Z"/><glyph unicode="¦" horiz-adv-x="610" d="M367 735H238V1638H367V735ZM367 -410H238V471H367V-410Z"/><glyph unicode="§" horiz-adv-x="1087" d="M209 1110Q152 1148 130 1202T108 1346V1370L109 1386Q120 1513 221 1572T524 1632Q738 1632 831 1570T942 1356L944 1257H819L815 1341Q806 1438 744 1478T520 1518Q379 1518 314 1485T240 1376L239 1363V1345L240 1315Q245 1271 263 1244T319 1196T477 1143Q758 1060 813 1042Q985 984 985 825Q985 654 846 602Q903 582 945 544T1012 450T1037 311V283L1036 264Q1024 115 909 45T573 -25Q381 -25 274 11T116 127T66 317V369H219Q219 249 248 195T351 118T578 94Q728 94 804 134T893 270V344Q883 420 824 467T625 553Q565 566 248 672Q151 706 113 762T74 915Q74 975 113 1033T209 1110ZM760 651Q804 658 830 698T856 801Q856 828 847 851T818 893T742 934T603 980T305 1065Q262 1057 236 1019T209 934Q209 869 234 837T326 784L413 756Q631 684 760 651Z"/><glyph unicode="¨" horiz-adv-x="858" d="M674 1227H518V1444H674V1227ZM342 1227H184V1444H342V1227Z"/><glyph unicode="©" horiz-adv-x="1327" d="M666 512Q498 512 363 575T152 753T72 1008L71 1069V1106Q71 1344 236 1491T666 1638Q837 1638 971 1571T1180 1381T1256 1107V1038Q1256 885 1182 765T972 578T666 512ZM1190 1024V1116Q1180 1327 1040 1449T666 1571Q504 1571 384 1514T200 1349T135 1068L137 1024Q139 821 284 698T666 575Q898 575 1039 696T1190 1024ZM1036 969Q1010 830 923 769T668 707Q285 707 285 1071Q285 1246 381 1340T670 1434Q839 1434 932 1364T1036 1163H909Q900 1241 844 1281T674 1321Q546 1321 479 1255T412 1067Q412 935 473 876T674 817Q780 817 836 851T911 969H1036Z"/><glyph unicode="ª" horiz-adv-x="1087" d="M1004 553H856Q842 689 842 709V719Q751 543 436 543Q252 543 149 614T43 813L45 881Q52 1023 179 1099T537 1184L683 1187Q758 1186 840 1180L841 1213L838 1343Q832 1444 765 1486T537 1528Q438 1528 375 1504T274 1429T236 1282H94Q94 1429 170 1513Q276 1659 541 1659Q755 1659 861 1594T979 1384Q984 1284 986 1152L981 776Q981 719 988 646T1004 553ZM1034 356H68V473H1034V356ZM840 1073Q710 1084 631 1084Q461 1084 371 1059T238 989T190 864Q190 797 221 755T317 686T498 659Q840 659 840 946V1073Z"/><glyph unicode="«" horiz-adv-x="1198" d="M1092 209L561 645V754L1092 1194V1024L696 700L1092 383V209ZM664 209L133 645V754L664 1194V1024L268 700L664 383V209Z"/><glyph unicode="¬" horiz-adv-x="1536" d="M1116 352V728H212V920H1296V352H1116Z"/><glyph unicode="­" horiz-adv-x="924" d="M895 680H29V842H895V680Z"/><glyph unicode="®" horiz-adv-x="1327" d="M666 512Q498 512 363 575T152 753T72 1008L71 1069V1106Q71 1262 146 1383T358 1571T666 1638Q837 1638 971 1571T1180 1381T1256 1107V1038Q1256 885 1182 765T972 578T666 512ZM1190 1024V1116Q1180 1327 1040 1449T666 1571Q429 1571 288 1454T137 1124L135 1068L137 1024Q139 821 284 698T666 575Q898 575 1039 696T1190 1024ZM969 729H836L688 1008H522V729H397V1399H733Q975 1399 975 1210Q975 1039 811 1022L969 729ZM850 1204Q850 1296 731 1296H522V1100H731Q850 1100 850 1204Z"/><glyph unicode="¯" horiz-adv-x="858" d="M711 1274H145V1382H711V1274Z"/><glyph unicode="°" horiz-adv-x="621" d="M311 1548Q411 1548 483 1476T555 1303Q555 1201 484 1129T311 1057Q210 1057 139 1128T68 1303Q68 1404 140 1476T311 1548ZM311 1448Q252 1448 211 1405T170 1303Q170 1243 210 1200T311 1157Q371 1157 411 1199T451 1303Q451 1362 411 1405T311 1448Z"/><glyph unicode="±" horiz-adv-x="1536" d="M672 352V764H200V936H672V1352H864V936H1340V764H864V352H672ZM204 24V216H1336V24H204Z"/><glyph unicode="²" horiz-adv-x="881" d="M803 795H102V893Q194 957 379 1068Q551 1171 606 1234T662 1366V1399Q662 1470 610 1501T446 1532Q360 1532 318 1512T248 1442Q235 1419 233 1402T231 1360H111Q111 1430 129 1466Q175 1556 253 1593T457 1630Q619 1630 701 1577T784 1413V1362Q783 1274 709 1193T472 1016L274 899H803V795Z"/><glyph unicode="³" horiz-adv-x="905" d="M606 1221Q842 1206 842 1033Q842 909 750 846T461 782Q362 782 292 798T176 843T108 912T86 1039V1049H207V1021L209 975Q212 927 276 899T459 870Q704 870 713 999L715 1024Q715 1078 694 1106T625 1148T494 1163H293V1255H494Q671 1268 678 1382L679 1411Q679 1448 658 1478T590 1523T465 1538Q359 1538 306 1514T242 1440L240 1398V1372H121Q121 1475 158 1527T270 1605T469 1630Q621 1630 702 1587T795 1452L798 1418Q798 1324 754 1280T606 1221Z"/><glyph unicode="´" horiz-adv-x="858" d="M283 1225L492 1499H664L432 1225H283Z"/><glyph unicode="µ" horiz-adv-x="1408" d="M252 -424Q196 -424 168 -392T140 -280Q140 -124 156 100Q172 300 172 328L176 356V1176H368V320Q368 228 450 176T628 124Q760 124 858 190T1008 380V1176H1200V308L1220 0H1056L1020 176Q952 68 836 14T572 -40Q520 -40 444 -14T324 60Q324 -28 352 -112T380 -264Q380 -424 252 -424Z"/><glyph unicode="¶" horiz-adv-x="999" d="M911 1632V-217H836V1509H750V-217H674V551Q645 512 574 487T432 461Q230 461 140 593T49 1047Q49 1638 449 1638Q514 1638 582 1616T674 1565L707 1632H911ZM672 1399Q670 1437 616 1467T504 1497Q388 1497 329 1447T239 1281T209 1044Q209 962 220 874T252 737T307 658T390 614T487 598Q559 598 612 630T670 709L672 840V1399Z"/><glyph unicode="·" horiz-adv-x="623" d="M418 664H197V942H418V664Z"/><glyph unicode="¸" horiz-adv-x="858" d="M567 -217Q567 -176 521 -154T400 -130L371 -129V0H467V-53Q686 -59 686 -217Q686 -289 625 -338T457 -389Q373 -389 274 -348V-262Q365 -308 443 -308Q499 -308 533 -283T567 -217Z"/><glyph unicode="¹" horiz-adv-x="750" d="M498 795H379V1475L37 1391V1491Q53 1491 143 1517T314 1574T410 1624H498V795Z"/><glyph unicode="º" horiz-adv-x="1190" d="M1120 1096Q1120 846 987 691T592 535Q419 535 305 598T129 785T66 1096Q66 1361 203 1509T594 1657Q768 1657 883 1595T1059 1416T1120 1096ZM1110 356H68V473H1110V356ZM975 1096Q975 1332 886 1430T592 1528Q393 1528 302 1422T211 1096Q211 940 251 844T367 705T592 662Q725 662 803 702T928 845T975 1096Z"/><glyph unicode="»" horiz-adv-x="1198" d="M537 229V403L928 723L537 1044V1217L1067 774V666L537 229ZM109 229V403L500 723L109 1044V1217L639 774V666L109 229Z"/><glyph unicode="¼" horiz-adv-x="1534" d="M492 795H371V1475L31 1391V1491Q47 1491 136 1517T307 1574T403 1624H492V795ZM1182 1618L772 799L379 0H274L700 856Q772 996 1073 1618H1182ZM1487 215H1323V0H1208V217H690V326L1194 825H1323V317H1487V215ZM1208 317V711L807 317H1208Z"/><glyph unicode="½" horiz-adv-x="1501" d="M477 795H358V1475L18 1391V1491Q34 1491 124 1517T295 1574T391 1624H477V795ZM1122 1618L914 1201Q653 683 319 0H215L364 302Q687 948 1012 1618H1122ZM1454 0H754V98Q840 158 1031 273Q1201 376 1256 438T1311 571V604Q1311 675 1260 706T1096 737Q1048 737 1016 732T962 715T921 679T893 634T883 565H762Q762 639 778 672Q825 762 902 799T1108 836Q1436 836 1436 618V567Q1435 480 1362 400T1123 221L926 104H1454V0Z"/><glyph unicode="¾" horiz-adv-x="1720" d="M551 1221Q664 1213 724 1168T784 1033Q784 907 692 845T403 782Q304 782 233 799T117 845T50 918T29 1049H150V1021L152 975Q155 927 219 899T401 870Q646 870 655 999L657 1024Q657 1078 636 1106T567 1148T436 1163H236V1255H436Q612 1268 621 1382L622 1411Q622 1448 601 1478T533 1523T408 1538Q301 1538 249 1514T186 1440L182 1372H63L70 1448Q82 1538 164 1584T412 1630Q525 1630 599 1606T706 1536T741 1428Q741 1329 699 1283T551 1221ZM1382 1618L1174 1201Q824 505 580 0H475L624 302Q947 948 1272 1618H1382ZM1694 215H1530V0H1415V217H897V326L1401 825H1530V317H1694V215ZM1415 317V713L1014 317H1415Z"/><glyph unicode="¿" horiz-adv-x="1171" d="M545 1618H727V1358H545V1618ZM563 1225H711Q711 1104 681 1010T589 844T394 683Q303 623 261 563T218 403Q218 318 254 254T375 158T602 127Q704 127 778 149T900 215T963 333T977 444H1135Q1135 386 1113 285T1024 117T846 17T582 -18Q338 -18 207 59T47 311Q44 332 44 382Q47 520 93 599T236 746L327 809Q423 874 469 931T539 1059T563 1225Z"/><glyph unicode="À" horiz-adv-x="1415" d="M334 426L176 0H6L621 1618H821L1409 0H1239L1083 426H334ZM1032 573L766 1311L719 1456L668 1311L389 573H1032ZM899 1635H745L516 1909H688L899 1635Z"/><glyph unicode="Á" horiz-adv-x="1415" d="M334 426L176 0H6L621 1618H821L1409 0H1239L1083 426H334ZM1032 573L766 1311L719 1456L668 1311L389 573H1032ZM517 1635L726 1909H898L666 1635H517Z"/><glyph unicode="Â" horiz-adv-x="1415" d="M334 426L176 0H6L621 1618H821L1409 0H1239L1083 426H334ZM1032 573L766 1311L719 1456L668 1311L389 573H1032ZM1025 1641H883L705 1813L527 1641H390L619 1911H795L1025 1641Z"/><glyph unicode="Ã" horiz-adv-x="1415" d="M334 426L176 0H6L621 1618H821L1409 0H1239L1083 426H334ZM1032 573L766 1311L719 1456L668 1311L389 573H1032ZM575 1772Q495 1772 491 1647H381Q384 1762 430 1824T567 1887Q619 1887 660 1870T749 1803Q771 1780 790 1763T837 1745Q881 1745 902 1777T927 1880L1034 1876Q1031 1762 987 1700T858 1637Q748 1637 680 1710Q639 1751 618 1761T575 1772Z"/><glyph unicode="Ä" horiz-adv-x="1415" d="M334 426L176 0H6L621 1618H821L1409 0H1239L1083 426H334ZM1032 573L766 1311L719 1456L668 1311L389 573H1032ZM952 1637H796V1854H952V1637ZM620 1637H462V1854H620V1637Z"/><glyph unicode="Å" horiz-adv-x="1415" d="M602 1569Q539 1625 539 1710Q539 1785 590 1839T717 1894Q793 1894 846 1840T899 1710Q899 1630 838 1571L1409 0H1239L1083 426H334L176 0H6L602 1569ZM717 1794Q683 1794 661 1769T639 1710Q639 1676 662 1650T717 1624Q750 1624 774 1650T799 1710Q799 1744 775 1769T717 1794ZM1032 573L766 1311L719 1456L668 1311L389 573H1032Z"/><glyph unicode="Æ" horiz-adv-x="2044" d="M1982 1618V1462H1124V895H1946V739H1124V154H1989V0H965V412H399L166 0H-6L911 1618H1982ZM965 1432L879 1264L471 553H965V1432Z"/><glyph unicode="Ç" horiz-adv-x="1520" d="M702 -14Q485 2 353 103T157 380T94 815Q94 1100 164 1273T392 1542T786 1638Q1092 1638 1259 1481T1442 1053H1272Q1259 1201 1196 1294T1033 1432T780 1477Q593 1477 478 1400T314 1183T266 813Q266 578 322 429T493 207T795 133Q1004 133 1127 241T1276 557H1442Q1427 392 1343 256T1124 51T801 -18H799V-53Q1018 -59 1018 -217Q1018 -289 957 -338T789 -389Q705 -389 606 -348V-262Q697 -308 775 -308Q831 -308 865 -283T899 -217Q899 -179 856 -157T750 -131L702 -129V-14Z"/><glyph unicode="È" horiz-adv-x="1362" d="M1247 0H193V1618H1239V1462H354V895H1204V739H354V154H1247V0ZM872 1635H718L489 1909H661L872 1635Z"/><glyph unicode="É" horiz-adv-x="1362" d="M1247 0H193V1618H1239V1462H354V895H1204V739H354V154H1247V0ZM490 1635L699 1909H871L639 1635H490Z"/><glyph unicode="Ê" horiz-adv-x="1362" d="M1247 0H193V1618H1239V1462H354V895H1204V739H354V154H1247V0ZM998 1641H856L678 1813L500 1641H363L592 1911H768L998 1641Z"/><glyph unicode="Ë" horiz-adv-x="1362" d="M1247 0H193V1618H1239V1462H354V895H1204V739H354V154H1247V0ZM926 1637H770V1854H926V1637ZM594 1637H436V1854H594V1637Z"/><glyph unicode="Ì" horiz-adv-x="553" d="M360 0H193V1618H360V0ZM469 1635H315L86 1909H258L469 1635Z"/><glyph unicode="Í" horiz-adv-x="553" d="M360 0H193V1618H360V0ZM87 1635L296 1909H468L236 1635H87Z"/><glyph unicode="Î" horiz-adv-x="553" d="M360 0H193V1618H360V0ZM595 1641H453L275 1813L97 1641H-40L189 1911H365L595 1641Z"/><glyph unicode="Ï" horiz-adv-x="553" d="M360 0H193V1618H360V0ZM523 1637H367V1854H523V1637ZM191 1637H33V1854H191V1637Z"/><glyph unicode="Ð" horiz-adv-x="1505" d="M193 727H45V885H193V1618H834Q1062 1618 1188 1544T1362 1314T1411 831Q1411 531 1381 383T1279 153T1105 36T852 0H193V727ZM354 885H786V727H354V156H819Q935 156 1006 176T1128 239T1202 349T1238 514T1251 829Q1251 984 1238 1097T1199 1275T1119 1383T995 1444T823 1462H354V885Z"/><glyph unicode="Ñ" horiz-adv-x="1542" d="M1356 0H1165L350 1378V0H193V1618H395L1200 254V1618H1356V0ZM638 1772Q558 1772 554 1647H444Q447 1762 493 1824T630 1887Q682 1887 723 1870T812 1803Q834 1780 853 1763T900 1745Q944 1745 965 1777T990 1880L1097 1876Q1094 1762 1050 1700T921 1637Q811 1637 743 1710Q702 1751 681 1761T638 1772Z"/><glyph unicode="Ò" horiz-adv-x="1554" d="M778 1638Q1015 1638 1168 1544T1392 1272T1462 815Q1462 530 1386 345T1163 70T776 -20Q432 -20 263 193T94 813Q94 1243 273 1440T778 1638ZM780 131Q954 131 1071 205T1242 429T1296 811Q1296 1005 1258 1144T1148 1353T987 1453T778 1483Q649 1483 560 1449T400 1339T294 1118T262 807Q262 583 319 432T487 206T780 131ZM968 1635H814L585 1909H757L968 1635Z"/><glyph unicode="Ó" horiz-adv-x="1554" d="M778 1638Q1015 1638 1168 1544T1392 1272T1462 815Q1462 530 1386 345T1163 70T776 -20Q432 -20 263 193T94 813Q94 1243 273 1440T778 1638ZM780 131Q954 131 1071 205T1242 429T1296 811Q1296 1005 1258 1144T1148 1353T987 1453T778 1483Q649 1483 560 1449T400 1339T294 1118T262 807Q262 583 319 432T487 206T780 131ZM586 1635L795 1909H967L735 1635H586Z"/><glyph unicode="Ô" horiz-adv-x="1554" d="M778 1638Q1015 1638 1168 1544T1392 1272T1462 815Q1462 530 1386 345T1163 70T776 -20Q432 -20 263 193T94 813Q94 1243 273 1440T778 1638ZM780 131Q954 131 1071 205T1242 429T1296 811Q1296 1005 1258 1144T1148 1353T987 1453T778 1483Q649 1483 560 1449T400 1339T294 1118T262 807Q262 583 319 432T487 206T780 131ZM1094 1641H952L774 1813L596 1641H459L688 1911H864L1094 1641Z"/><glyph unicode="Õ" horiz-adv-x="1554" d="M778 1638Q1015 1638 1168 1544T1392 1272T1462 815Q1462 530 1386 345T1163 70T776 -20Q432 -20 263 193T94 813Q94 1243 273 1440T778 1638ZM780 131Q954 131 1071 205T1242 429T1296 811Q1296 1005 1258 1144T1148 1353T987 1453T778 1483Q649 1483 560 1449T400 1339T294 1118T262 807Q262 583 319 432T487 206T780 131ZM644 1772Q564 1772 560 1647H450Q453 1762 499 1824T636 1887Q688 1887 729 1870T818 1803Q840 1780 859 1763T906 1745Q950 1745 971 1777T996 1880L1103 1876Q1100 1762 1056 1700T927 1637Q817 1637 749 1710Q708 1751 687 1761T644 1772Z"/><glyph unicode="Ö" horiz-adv-x="1554" d="M778 1638Q1015 1638 1168 1544T1392 1272T1462 815Q1462 530 1386 345T1163 70T776 -20Q432 -20 263 193T94 813Q94 1243 273 1440T778 1638ZM780 131Q954 131 1071 205T1242 429T1296 811Q1296 1005 1258 1144T1148 1353T987 1453T778 1483Q649 1483 560 1449T400 1339T294 1118T262 807Q262 583 319 432T487 206T780 131ZM1022 1637H866V1854H1022V1637ZM690 1637H532V1854H690V1637Z"/><glyph unicode="×" horiz-adv-x="1141" d="M915 1028L653 768L915 506L829 418L569 678L309 418L225 508L485 768L225 1028L311 1118L569 858L829 1118L915 1028Z"/><glyph unicode="Ø" horiz-adv-x="1554" d="M1274 1466Q1462 1294 1462 815Q1462 530 1386 345T1163 70T776 -20Q514 -20 365 94L242 -88H115Q245 102 281 162Q186 268 140 425T94 813Q94 1243 273 1440T778 1638Q1032 1638 1194 1530L1274 1647H1393L1274 1466ZM379 317L1106 1391Q1043 1438 965 1460T778 1483Q649 1483 560 1449T400 1339T294 1118T262 807Q262 491 379 317ZM1178 1315L453 233Q538 174 609 153T780 131Q954 131 1071 205T1242 429T1296 811Q1296 1164 1178 1315Z"/><glyph unicode="Ù" horiz-adv-x="1526" d="M1356 446Q1356 230 1199 106T768 -18Q482 -18 326 103T170 453V1618H334V455Q334 301 444 216T772 131Q961 131 1076 217T1192 453V1618H1356V446ZM954 1635H800L571 1909H743L954 1635Z"/><glyph unicode="Ú" horiz-adv-x="1526" d="M1356 446Q1356 230 1199 106T768 -18Q482 -18 326 103T170 453V1618H334V455Q334 301 444 216T772 131Q961 131 1076 217T1192 453V1618H1356V446ZM572 1635L781 1909H953L721 1635H572Z"/><glyph unicode="Û" horiz-adv-x="1526" d="M1356 446Q1356 230 1199 106T768 -18Q482 -18 326 103T170 453V1618H334V455Q334 301 444 216T772 131Q961 131 1076 217T1192 453V1618H1356V446ZM1080 1641H938L760 1813L582 1641H445L674 1911H850L1080 1641Z"/><glyph unicode="Ü" horiz-adv-x="1526" d="M1356 446Q1356 230 1199 106T768 -18Q482 -18 326 103T170 453V1618H334V455Q334 301 444 216T772 131Q961 131 1076 217T1192 453V1618H1356V446ZM1008 1637H852V1854H1008V1637ZM676 1637H518V1854H676V1637Z"/><glyph unicode="Ý" horiz-adv-x="1442" d="M1438 1618L793 551V0H625V549L6 1618H184L711 715L1266 1618H1438ZM530 1635L739 1909H911L679 1635H530Z"/><glyph unicode="Þ" horiz-adv-x="1442" d="M360 1618V1364H897Q1228 1364 1300 1141Q1348 1030 1348 856Q1348 756 1331 668T1278 521T1187 424T1058 369T804 351H620L358 352V0H193V1618H360ZM1182 854Q1182 971 1163 1034T1109 1136T1017 1192T877 1210H358V504H874Q955 504 1014 522T1108 576T1164 678T1182 854Z"/><glyph unicode="ß" horiz-adv-x="1665" d="M637 1503Q518 1501 462 1448T406 1286V0H250V985H33V1126H250V1305Q250 1472 351 1559T649 1647Q805 1647 905 1566T1006 1356Q1006 1290 976 1234T884 1125Q819 1067 791 1019T762 913Q762 841 818 798T1036 723L1241 684Q1624 618 1624 334Q1624 161 1496 72T1118 -18Q666 -18 606 231Q597 269 596 331L594 362H752V346Q752 268 775 229T845 161T961 119T1120 106Q1296 106 1383 158T1470 322Q1470 415 1398 471T1167 553L985 586Q784 622 697 697T610 893Q610 957 638 1010T726 1118Q789 1176 815 1222T842 1321Q842 1406 787 1454T637 1503Z"/><glyph unicode="à" horiz-adv-x="1247" d="M1128 0H983Q978 0 971 51T964 138L965 162Q854 -12 516 -12Q316 -12 205 65T92 283V334Q94 442 160 517T353 634T690 675Q820 675 963 659L958 819Q950 922 874 968T633 1014Q521 1014 454 994T340 919T293 774H147Q158 925 223 1002T387 1114T631 1149Q863 1149 977 1078T1104 856Q1109 762 1111 620L1108 227Q1108 156 1114 87T1128 0ZM965 545Q828 560 732 560Q569 560 461 535T299 460T246 324Q246 246 286 202T392 137T559 115Q659 115 737 135T869 206T944 318T965 518V545ZM815 1225H661L432 1499H604L815 1225Z"/><glyph unicode="á" horiz-adv-x="1247" d="M1128 0H983Q978 0 971 51T964 138L965 162Q854 -12 516 -12Q316 -12 205 65T92 283V334Q94 442 160 517T353 634T690 675Q820 675 963 659L958 819Q950 922 874 968T633 1014Q521 1014 454 994T340 919T293 774H147Q158 925 223 1002T387 1114T631 1149Q863 1149 977 1078T1104 856Q1109 762 1111 620L1108 227Q1108 156 1114 87T1128 0ZM965 545Q828 560 732 560Q569 560 461 535T299 460T246 324Q246 246 286 202T392 137T559 115Q659 115 737 135T869 206T944 318T965 518V545ZM433 1225L642 1499H814L582 1225H433Z"/><glyph unicode="â" horiz-adv-x="1247" d="M1128 0H983Q978 0 971 51T964 138L965 162Q854 -12 516 -12Q316 -12 205 65T92 283V334Q94 442 160 517T353 634T690 675Q820 675 963 659L958 819Q950 922 874 968T633 1014Q521 1014 454 994T340 919T293 774H147Q158 925 223 1002T387 1114T631 1149Q863 1149 977 1078T1104 856Q1109 762 1111 620L1108 227Q1108 156 1114 87T1128 0ZM965 545Q828 560 732 560Q569 560 461 535T299 460T246 324Q246 246 286 202T392 137T559 115Q659 115 737 135T869 206T944 318T965 518V545ZM941 1231H799L621 1403L443 1231H306L535 1501H711L941 1231Z"/><glyph unicode="ã" horiz-adv-x="1247" d="M1128 0H983Q978 0 971 51T964 138L965 162Q854 -12 516 -12Q316 -12 205 65T92 283V334Q94 442 160 517T353 634T690 675Q820 675 963 659L958 819Q950 922 874 968T633 1014Q521 1014 454 994T340 919T293 774H147Q158 925 223 1002T387 1114T631 1149Q863 1149 977 1078T1104 856Q1109 762 1111 620L1108 227Q1108 156 1114 87T1128 0ZM965 545Q828 560 732 560Q569 560 461 535T299 460T246 324Q246 246 286 202T392 137T559 115Q659 115 737 135T869 206T944 318T965 518V545ZM491 1362Q411 1362 407 1237H297Q300 1352 346 1414T483 1477Q535 1477 576 1460T665 1393Q687 1370 706 1353T753 1335Q797 1335 818 1367T843 1470L950 1466Q947 1352 903 1290T774 1227Q664 1227 596 1300Q555 1341 534 1351T491 1362Z"/><glyph unicode="ä" horiz-adv-x="1247" d="M1128 0H983Q978 0 971 51T964 138L965 162Q854 -12 516 -12Q316 -12 205 65T92 283V334Q94 442 160 517T353 634T690 675Q820 675 963 659L958 819Q950 922 874 968T633 1014Q521 1014 454 994T340 919T293 774H147Q158 925 223 1002T387 1114T631 1149Q863 1149 977 1078T1104 856Q1109 762 1111 620L1108 227Q1108 156 1114 87T1128 0ZM965 545Q828 560 732 560Q569 560 461 535T299 460T246 324Q246 246 286 202T392 137T559 115Q659 115 737 135T869 206T944 318T965 518V545ZM868 1227H712V1444H868V1227ZM536 1227H378V1444H536V1227Z"/><glyph unicode="å" horiz-adv-x="1247" d="M1128 0H983Q978 0 971 51T964 138L965 162Q854 -12 516 -12Q316 -12 205 65T92 283V334Q94 442 160 517T353 634T690 675Q820 675 963 659L958 819Q950 922 874 968T633 1014Q521 1014 454 994T340 919T293 774H147Q158 925 223 1002T387 1114T631 1149Q863 1149 977 1078T1104 856Q1109 762 1111 620L1108 227Q1108 156 1114 87T1128 0ZM965 545Q828 560 732 560Q569 560 461 535T299 460T246 324Q246 246 286 202T392 137T559 115Q659 115 737 135T869 206T944 318T965 518V545ZM621 1595Q697 1595 750 1541T803 1411Q803 1336 750 1281T621 1225Q547 1225 495 1280T443 1411Q443 1486 494 1540T621 1595ZM621 1495Q587 1495 565 1470T543 1411Q543 1377 566 1351T621 1325Q654 1325 678 1351T703 1411Q703 1445 679 1470T621 1495Z"/><glyph unicode="æ" horiz-adv-x="2114" d="M1032 217Q967 94 853 41T522 -12Q318 -12 206 64T92 283V334Q102 675 690 675Q820 675 963 659L958 819Q950 923 871 967T625 1012Q459 1012 375 952T291 754H147Q147 944 278 1046T631 1149Q825 1149 932 1091T1063 909Q1095 1015 1219 1082T1522 1149Q1706 1149 1834 1074T2014 876T2065 570L2064 512H1108Q1108 399 1123 337T1186 225T1322 146T1518 117Q1629 117 1714 143T1849 225T1907 344H2056Q2041 234 1971 148T1788 22T1518 -18Q1315 -18 1194 44T1032 217ZM1909 623Q1909 759 1873 839T1747 965T1511 1010Q1309 1010 1208 911T1106 623H1909ZM965 530Q949 540 925 542T862 547L707 554Q651 554 592 543Q253 516 253 325Q253 235 339 181T563 126Q692 126 791 162T928 302T965 530Z"/><glyph unicode="ç" horiz-adv-x="1260" d="M588 -16Q78 9 78 565Q78 846 222 997T641 1149Q803 1149 922 1102T1108 956T1176 727H1024Q1024 856 923 930T645 1004Q437 1004 335 896T233 563Q233 331 331 227T649 123Q998 123 1028 385H1176Q1162 198 1035 95T684 -18V-53Q903 -59 903 -217Q903 -289 842 -338T675 -389Q591 -389 492 -348V-262Q583 -308 661 -308Q717 -308 750 -283T784 -217Q784 -176 738 -154T617 -130L588 -129V-16Z"/><glyph unicode="è" horiz-adv-x="1239" d="M1180 344Q1151 171 1012 77T647 -18Q80 -18 80 567Q80 844 227 996T637 1149Q909 1149 1049 1001T1189 561L1188 502H231Q237 314 341 216T649 117Q818 117 918 176T1030 344H1180ZM1032 633Q1032 1010 637 1010Q444 1010 338 912T231 633H1032ZM811 1225H657L428 1499H600L811 1225Z"/><glyph unicode="é" horiz-adv-x="1239" d="M1180 344Q1151 171 1012 77T647 -18Q80 -18 80 567Q80 844 227 996T637 1149Q909 1149 1049 1001T1189 561L1188 502H231Q237 314 341 216T649 117Q818 117 918 176T1030 344H1180ZM1032 633Q1032 1010 637 1010Q444 1010 338 912T231 633H1032ZM429 1225L638 1499H810L578 1225H429Z"/><glyph unicode="ê" horiz-adv-x="1239" d="M1180 344Q1151 171 1012 77T647 -18Q80 -18 80 567Q80 844 227 996T637 1149Q909 1149 1049 1001T1189 561L1188 502H231Q237 314 341 216T649 117Q818 117 918 176T1030 344H1180ZM1032 633Q1032 1010 637 1010Q444 1010 338 912T231 633H1032ZM937 1231H795L617 1403L439 1231H302L531 1501H707L937 1231Z"/><glyph unicode="ë" horiz-adv-x="1239" d="M1180 344Q1151 171 1012 77T647 -18Q80 -18 80 567Q80 844 227 996T637 1149Q909 1149 1049 1001T1189 561L1188 502H231Q237 314 341 216T649 117Q818 117 918 176T1030 344H1180ZM1032 633Q1032 1010 637 1010Q444 1010 338 912T231 633H1032ZM864 1227H708V1444H864V1227ZM532 1227H374V1444H532V1227Z"/><glyph unicode="ì" horiz-adv-x="465" d="M322 0H168Q156 7 156 90V1126H311V96Q311 6 322 0ZM425 1225H271L42 1499H214L425 1225Z"/><glyph unicode="í" horiz-adv-x="465" d="M322 0H168Q156 7 156 90V1126H311V96Q311 6 322 0ZM43 1225L252 1499H424L192 1225H43Z"/><glyph unicode="î" horiz-adv-x="465" d="M322 0H168Q156 7 156 90V1126H311V96Q311 6 322 0ZM551 1231H409L231 1403L53 1231H-84L145 1501H321L551 1231Z"/><glyph unicode="ï" horiz-adv-x="465" d="M322 0H168Q156 7 156 90V1126H311V96Q311 6 322 0ZM479 1227H323V1444H479V1227ZM147 1227H-11V1444H147V1227Z"/><glyph unicode="ð" horiz-adv-x="1309" d="M1024 1206Q973 1172 948 1164T893 1155Q816 1155 770 1202T715 1343L784 1360Q789 1291 814 1259T893 1227Q930 1227 955 1241T1008 1278Q984 1345 951 1386T874 1454T775 1493T643 1507Q405 1507 336 1364L328 1325H172L188 1395Q276 1640 670 1640Q824 1640 941 1580T1112 1413L1143 1352Q1190 1387 1210 1395T1272 1403Q1349 1403 1394 1352T1448 1204L1382 1188Q1370 1327 1270 1327Q1241 1327 1222 1319T1167 1282Q1196 1210 1215 1092T1235 856Q1235 534 1200 403Q1150 200 1013 91T651 -18Q461 -18 332 48T140 243T76 527Q76 769 214 921T612 1073Q932 1073 1075 866Q1075 951 1062 1045T1024 1206ZM651 125Q750 125 827 157T959 252T1040 403T1073 711Q1049 771 983 828T833 913T653 942Q456 942 351 831T245 512Q245 323 352 224T651 125Z"/><glyph unicode="ñ" horiz-adv-x="1255" d="M1128 0H979Q973 0 972 34T970 224T969 438V743Q969 1001 662 1001Q506 1001 405 924T303 717V0H150V1126H297V952Q333 1047 439 1098T713 1149Q906 1149 1015 1049T1124 770Q1124 292 1130 34Q1130 0 1128 0ZM495 1362Q415 1362 411 1237H301Q304 1352 350 1414T487 1477Q539 1477 580 1460T669 1393Q691 1370 710 1353T757 1335Q801 1335 822 1367T847 1470L954 1466Q951 1352 907 1290T778 1227Q668 1227 600 1300Q559 1341 538 1351T495 1362Z"/><glyph unicode="ò" horiz-adv-x="1305" d="M1227 565Q1227 294 1075 138T655 -18Q387 -18 234 135T80 565Q80 741 147 872T345 1076T655 1149Q925 1149 1076 997T1227 565ZM1075 565Q1075 787 971 895T653 1004Q454 1004 343 889T231 565Q231 351 337 237T655 123Q855 123 965 238T1075 565ZM844 1225H690L461 1499H633L844 1225Z"/><glyph unicode="ó" horiz-adv-x="1305" d="M1227 565Q1227 294 1075 138T655 -18Q387 -18 234 135T80 565Q80 741 147 872T345 1076T655 1149Q925 1149 1076 997T1227 565ZM1075 565Q1075 787 971 895T653 1004Q454 1004 343 889T231 565Q231 351 337 237T655 123Q855 123 965 238T1075 565ZM462 1225L671 1499H843L611 1225H462Z"/><glyph unicode="ô" horiz-adv-x="1305" d="M1227 565Q1227 294 1075 138T655 -18Q387 -18 234 135T80 565Q80 741 147 872T345 1076T655 1149Q925 1149 1076 997T1227 565ZM1075 565Q1075 787 971 895T653 1004Q454 1004 343 889T231 565Q231 351 337 237T655 123Q855 123 965 238T1075 565ZM970 1231H828L650 1403L472 1231H335L564 1501H740L970 1231Z"/><glyph unicode="õ" horiz-adv-x="1305" d="M1227 565Q1227 294 1075 138T655 -18Q387 -18 234 135T80 565Q80 741 147 872T345 1076T655 1149Q925 1149 1076 997T1227 565ZM1075 565Q1075 787 971 895T653 1004Q454 1004 343 889T231 565Q231 351 337 237T655 123Q855 123 965 238T1075 565ZM520 1362Q440 1362 436 1237H326Q329 1352 375 1414T512 1477Q564 1477 605 1460T694 1393Q716 1370 735 1353T782 1335Q826 1335 847 1367T872 1470L979 1466Q976 1352 932 1290T803 1227Q693 1227 625 1300Q584 1341 563 1351T520 1362Z"/><glyph unicode="ö" horiz-adv-x="1305" d="M1227 565Q1227 294 1075 138T655 -18Q387 -18 234 135T80 565Q80 741 147 872T345 1076T655 1149Q925 1149 1076 997T1227 565ZM1075 565Q1075 787 971 895T653 1004Q454 1004 343 889T231 565Q231 351 337 237T655 123Q855 123 965 238T1075 565ZM897 1227H741V1444H897V1227ZM565 1227H407V1444H565V1227Z"/><glyph unicode="÷" horiz-adv-x="1536" d="M208 684V896H1328V684H208ZM768 228Q704 228 656 276T608 388Q608 452 650 500T768 548Q840 548 884 500T928 388Q928 324 880 276T768 228ZM768 1028Q704 1028 656 1076T608 1188Q608 1252 650 1300T768 1348Q840 1348 884 1300T928 1188Q928 1124 880 1076T768 1028Z"/><glyph unicode="ø" horiz-adv-x="1305" d="M236 117Q80 281 80 565Q80 749 145 879T340 1079T655 1149Q863 1149 989 1075L1073 1180H1188L1065 1024Q1089 1002 1135 936Q1227 792 1227 565Q1227 297 1083 140T651 -18Q432 -18 305 66L211 -51H102L236 117ZM326 240L899 952Q805 1004 653 1004Q463 1004 347 898T231 565Q231 341 326 240ZM975 901L391 182Q483 123 653 123Q877 123 976 242T1075 565Q1075 674 1049 764T975 901Z"/><glyph unicode="ù" horiz-adv-x="1255" d="M971 0L965 152Q916 64 819 24T549 -16Q141 -16 141 309V635Q141 814 140 967T133 1126H291Q295 926 295 447V360Q295 239 369 178T602 117Q763 117 863 186T963 375V1126H1114V197Q1114 24 1120 0H971ZM819 1225H665L436 1499H608L819 1225Z"/><glyph unicode="ú" horiz-adv-x="1255" d="M971 0L965 152Q916 64 819 24T549 -16Q141 -16 141 309V635Q141 814 140 967T133 1126H291Q295 926 295 447V360Q295 239 369 178T602 117Q763 117 863 186T963 375V1126H1114V197Q1114 24 1120 0H971ZM437 1225L646 1499H818L586 1225H437Z"/><glyph unicode="û" horiz-adv-x="1255" d="M971 0L965 152Q916 64 819 24T549 -16Q141 -16 141 309V635Q141 814 140 967T133 1126H291Q295 926 295 447V360Q295 239 369 178T602 117Q763 117 863 186T963 375V1126H1114V197Q1114 24 1120 0H971ZM945 1231H803L625 1403L447 1231H310L539 1501H715L945 1231Z"/><glyph unicode="ü" horiz-adv-x="1255" d="M971 0L965 152Q916 64 819 24T549 -16Q141 -16 141 309V635Q141 814 140 967T133 1126H291Q295 926 295 447V360Q295 239 369 178T602 117Q763 117 863 186T963 375V1126H1114V197Q1114 24 1120 0H971ZM872 1227H716V1444H872V1227ZM540 1227H382V1444H540V1227Z"/><glyph unicode="ý" horiz-adv-x="1204" d="M1186 1126L528 -354H367L524 2L20 1126H186L608 170Q608 174 1028 1126H1186ZM411 1225L620 1499H792L560 1225H411Z"/><glyph unicode="þ" horiz-adv-x="1311" d="M1243 573Q1243 370 1185 242T1009 52T733 -10Q567 -10 454 43T301 197L303 -354H152V1632H301V926Q331 1025 447 1087T729 1149Q988 1149 1115 1007T1243 573ZM1087 565Q1087 681 1066 767T989 905T869 977T690 1001Q548 1001 463 954T338 820T299 565Q299 395 340 307T465 175T692 131Q832 131 917 176T1045 315T1087 565Z"/><glyph unicode="ÿ" horiz-adv-x="1204" d="M1186 1126L528 -354H367L524 2L20 1126H186L608 170Q608 174 1028 1126H1186ZM847 1227H691V1444H847V1227ZM515 1227H357V1444H515V1227Z"/><glyph unicode="ı" horiz-adv-x="465" d="M322 0H168Q156 7 156 90V1126H311V96Q311 6 322 0Z"/><glyph unicode="Ł" horiz-adv-x="0"/><glyph unicode="ł" horiz-adv-x="0"/><glyph unicode="Œ" horiz-adv-x="2259" d="M1165 1618H2175V1466H1300V893H2140V741H1300V152H2183V0H1163V78Q1108 34 1001 7T766 -20Q547 -20 394 74T167 356T92 813Q92 1107 171 1290T392 1556T762 1638Q891 1638 996 1605T1165 1511V1618ZM782 133Q918 133 1013 161T1139 233Q1143 241 1143 591V1022Q1143 1327 1139 1339Q1024 1481 780 1481Q603 1481 487 1410T317 1182T262 807Q262 465 397 299T782 133Z"/><glyph unicode="œ" horiz-adv-x="2247" d="M651 -18Q376 -18 228 134T80 565Q80 851 228 1000T655 1149Q1035 1149 1149 881Q1262 1149 1628 1149Q1898 1149 2039 1000T2180 560L2179 510H1223Q1223 300 1321 207T1632 113Q1800 113 1900 171T2021 344H2171Q2151 180 2009 81T1632 -18Q1434 -18 1303 51T1135 242Q1085 117 959 50T651 -18ZM2021 625Q2021 824 1926 917T1626 1010Q1428 1010 1325 913T1221 625H2021ZM1075 565Q1075 795 972 899T653 1004Q446 1004 339 893T231 565Q231 119 653 119Q1075 119 1075 565Z"/><glyph unicode="Š" horiz-adv-x="1473" d="M1360 438Q1360 220 1206 100T766 -20Q451 -20 284 104T109 467H276Q295 127 762 127Q972 127 1080 200T1188 418Q1188 518 1138 585T985 691T658 768Q360 817 244 923T127 1219Q127 1348 194 1441T391 1585T707 1636Q994 1636 1146 1526T1335 1174H1167Q1136 1339 1027 1413T698 1487Q508 1487 403 1421T297 1229Q297 1137 342 1075T475 976T829 894Q1024 861 1135 810T1303 666T1360 438ZM418 1911H553L735 1731L917 1911H1055L823 1641H649L418 1911Z"/><glyph unicode="š" horiz-adv-x="1214" d="M1120 309Q1120 139 998 61T618 -18Q418 -18 308 14T149 120T100 328H252Q252 241 286 197T396 133T623 113Q801 113 885 157T969 303Q969 381 905 427T701 497L545 524Q370 553 289 593T165 697T121 858Q121 996 241 1073T584 1151Q834 1151 956 1067T1079 799H928Q928 872 910 909T850 970T745 1004T588 1016Q429 1016 351 976T272 850Q272 778 337 734T540 668Q733 638 828 615T984 554T1083 458T1120 309ZM288 1501H423L605 1321L787 1501H925L693 1231H519L288 1501Z"/><glyph unicode="Ÿ" horiz-adv-x="1442" d="M1438 1618L793 551V0H625V549L6 1618H184L711 715L1266 1618H1438ZM966 1637H810V1854H966V1637ZM634 1637H476V1854H634V1637Z"/><glyph unicode="Ž" horiz-adv-x="1276" d="M1227 0H72V145L1001 1464H115V1618H1198V1479L260 152H1227V0ZM319 1911H454L636 1731L818 1911H956L724 1641H550L319 1911Z"/><glyph unicode="ž" horiz-adv-x="1051" d="M1004 0H63V129L788 985H76V1126H973V985L258 139H1004V0ZM207 1501H342L524 1321L706 1501H844L612 1231H438L207 1501Z"/><glyph unicode="ƒ" horiz-adv-x="907" d="M43 -307Q-31 -307 -152 -293V-150Q-92 -160 10 -160Q87 -158 139 -111T197 8L293 987H82L86 1137H309L332 1368Q358 1649 696 1649Q720 1649 740 1648T785 1645T903 1626L901 1489L867 1495Q782 1509 721 1509Q500 1505 487 1346L467 1130H842L840 987H453L356 -18Q340 -152 256 -229T43 -307Z"/><glyph unicode="ˆ" horiz-adv-x="858" d="M748 1231H606L428 1403L250 1231H113L342 1501H518L748 1231Z"/><glyph unicode="ˇ" horiz-adv-x="858" d="M111 1501H246L428 1321L610 1501H748L516 1231H342L111 1501Z"/><glyph unicode="˘" horiz-adv-x="0"/><glyph unicode="˙" horiz-adv-x="0"/><glyph unicode="˚" horiz-adv-x="858" d="M428 1595Q504 1595 557 1541T610 1411Q610 1336 557 1281T428 1225Q354 1225 302 1280T250 1411Q250 1486 301 1540T428 1595ZM428 1495Q394 1495 372 1470T350 1411Q350 1377 373 1351T428 1325Q461 1325 485 1351T510 1411Q510 1445 486 1470T428 1495Z"/><glyph unicode="˛" horiz-adv-x="0"/><glyph unicode="˜" horiz-adv-x="858" d="M303 1362Q223 1362 219 1237H109Q112 1352 158 1414T295 1477Q347 1477 388 1460T477 1393Q499 1370 518 1353T565 1335Q609 1335 630 1367T655 1470L762 1466Q759 1352 715 1290T586 1227Q476 1227 408 1300Q367 1341 346 1351T303 1362Z"/><glyph unicode="˝" horiz-adv-x="0"/><glyph unicode="̄" horiz-adv-x="858" d="M711 1274H145V1382H711V1274Z"/><glyph unicode="Δ" horiz-adv-x="0"/><glyph unicode="Ω" horiz-adv-x="0"/><glyph unicode="μ" horiz-adv-x="1408" d="M252 -424Q196 -424 168 -392T140 -280Q140 -124 156 100Q172 300 172 328L176 356V1176H368V320Q368 228 450 176T628 124Q760 124 858 190T1008 380V1176H1200V308L1220 0H1056L1020 176Q952 68 836 14T572 -40Q520 -40 444 -14T324 60Q324 -28 352 -112T380 -264Q380 -424 252 -424Z"/><glyph unicode="π" horiz-adv-x="0"/><glyph unicode="–" horiz-adv-x="1044" d="M993 616H51V776H993V616Z"/><glyph unicode="—" horiz-adv-x="1432" d="M1339 618H92V778H1339V618Z"/><glyph unicode="‘" horiz-adv-x="365" d="M293 1446V1171H82V1456L211 1640L295 1595L229 1454L236 1446H293Z"/><glyph unicode="’" horiz-adv-x="365" d="M74 1354V1630H287V1343L158 1161L74 1204L139 1346L133 1354H74Z"/><glyph unicode="‚" horiz-adv-x="365" d="M74 0V276H287V-8L158 -195L74 -152L139 -8L133 0H74Z"/><glyph unicode="“" horiz-adv-x="700" d="M627 1438V1171H422V1448L553 1640L637 1595L563 1448L569 1440L627 1438ZM287 1440V1171H82V1448L213 1640L297 1595L223 1448L229 1440H287Z"/><glyph unicode="”" horiz-adv-x="700" d="M426 1362V1630H631V1350L500 1161L416 1204L489 1354L483 1362H426ZM86 1362V1630H291V1350L160 1161L78 1204L150 1354L143 1362H86Z"/><glyph unicode="„" horiz-adv-x="700" d="M426 0V268H631V-10L500 -201L416 -158L489 -8L483 0H426ZM86 0V268H291V-10L160 -201L78 -158L150 -8L143 0H86Z"/><glyph unicode="†" horiz-adv-x="717" d="M688 918H438V-8L356 -197L281 -8V918H29V1065H281L279 1624H440L438 1065H688V918Z"/><glyph unicode="‡" horiz-adv-x="717" d="M438 684H674V553H440V-10L358 -197L285 -10V553H45V684H285V967H45V1100H285L283 1624H442L440 1100H674V967H438V684Z"/><glyph unicode="•" horiz-adv-x="702" d="M354 596Q293 596 249 640T205 748Q205 812 249 855T354 899Q415 899 459 855T504 748Q504 685 460 641T354 596Z"/><glyph unicode="…" horiz-adv-x="1872" d="M1661 0H1448V279H1661V0ZM1038 0H823V279H1038V0ZM414 0H201V279H414V0Z"/><glyph unicode="‰" horiz-adv-x="2949" d="M965 1184Q965 1080 910 990T757 847T532 795Q405 795 306 847T152 990T96 1184V1253Q96 1367 149 1457T300 1596T530 1645Q663 1645 761 1595T912 1455T965 1253V1184ZM1559 1581L555 0H444L1448 1581H1559ZM2890 375Q2890 260 2838 171T2687 33T2454 -16Q2326 -16 2228 35T2075 178T2021 375V444Q2021 551 2074 641T2227 783T2456 836Q2584 836 2682 783T2835 639T2890 444V375ZM1944 375Q1944 260 1892 171T1741 33T1507 -16Q1379 -16 1281 35T1128 178T1073 375V444Q1073 551 1127 641T1280 784T1507 836Q1635 836 1734 783T1888 639T1944 444V375ZM834 1188V1251Q834 1363 750 1441T530 1520Q387 1520 307 1450T227 1253V1188Q227 1116 266 1052T375 950T530 913Q624 913 692 948T797 1047T834 1188ZM2761 379V442Q2761 515 2722 578T2614 677T2456 713Q2315 713 2234 640T2152 444V379Q2152 310 2191 247T2299 145T2456 106Q2552 106 2620 140T2725 237T2761 379ZM1812 379V442Q1812 515 1773 578T1665 677T1507 713Q1365 713 1285 639T1204 444V379Q1204 310 1243 246T1351 144T1507 106Q1604 106 1672 141T1776 238T1812 379Z"/><glyph unicode="‹" horiz-adv-x="633" d="M586 229L55 666V774L586 1217V1044L188 723L586 403V229Z"/><glyph unicode="›" horiz-adv-x="633" d="M47 229V403L446 723L47 1044V1217L575 774V666L47 229Z"/><glyph unicode="⁄" horiz-adv-x="0"/><glyph unicode="€" horiz-adv-x="1473" d="M369 854V758H1094V651H373Q383 456 403 389Q442 255 540 192T799 129Q980 129 1080 213T1201 445L1210 518H1380Q1365 371 1321 272T1207 109T1034 14T797 -18Q564 -18 435 69T246 354Q214 455 205 651H41V758H201V854H41V958H203Q208 1143 235 1259T337 1460T530 1590T799 1636Q973 1636 1103 1574T1304 1396T1386 1079H1217Q1208 1177 1198 1217Q1171 1343 1065 1415T797 1487Q694 1487 612 1458T476 1373T400 1242T371 958H1094V854H369Z"/><glyph unicode="℗" horiz-adv-x="0"/><glyph unicode="™" horiz-adv-x="1608" d="M1409 1051V1415Q1409 1460 1382 1489T1294 1518Q1238 1518 1203 1484T1167 1399V1051H1040V1432Q1040 1471 1007 1494T926 1518Q875 1518 834 1482T793 1399V1051H666V1634H793V1544Q809 1587 863 1616T981 1645Q1050 1645 1092 1614T1147 1536Q1159 1584 1214 1614T1343 1645Q1432 1645 1486 1598T1540 1464V1051H1409ZM602 1518H358V1274Q358 1226 385 1194T473 1161H524L573 1163V1053L424 1049Q338 1049 288 1097T238 1223V1518H20V1634H602V1518Z"/><glyph unicode="Ω" horiz-adv-x="0"/><glyph unicode="∂" horiz-adv-x="0"/><glyph unicode="∆" horiz-adv-x="0"/><glyph unicode="∏" horiz-adv-x="0"/><glyph unicode="∑" horiz-adv-x="0"/><glyph unicode="−" horiz-adv-x="0"/><glyph unicode="∕" horiz-adv-x="0"/><glyph unicode="∙" horiz-adv-x="623" d="M418 664H197V942H418V664Z"/><glyph unicode="√" horiz-adv-x="0"/><glyph unicode="∞" horiz-adv-x="0"/><glyph unicode="∫" horiz-adv-x="0"/><glyph unicode="≈" horiz-adv-x="0"/><glyph unicode="≠" horiz-adv-x="0"/><glyph unicode="≤" horiz-adv-x="0"/><glyph unicode="≥" horiz-adv-x="0"/><glyph unicode="◊" horiz-adv-x="0"/><glyph unicode="" horiz-adv-x="0"/><glyph unicode="ﬀ" horiz-adv-x="1485" d="M403 983V0H248V983H33V1126H248V1354Q248 1647 571 1647Q653 1647 751 1633L788 1628V1487Q692 1503 610 1503Q501 1501 451 1461T401 1339V1124H922V1337Q922 1488 1005 1567T1245 1647Q1329 1647 1424 1633L1462 1628V1487Q1350 1503 1284 1503Q1178 1501 1127 1463T1075 1341V1124H1452V983H1077V0H922V983H403Z"/><glyph unicode="ﬁ" horiz-adv-x="1288" d="M930 985H406V0H250V983H33V1126H250V1356Q250 1647 578 1647Q661 1647 756 1633L793 1628V1489Q697 1505 616 1505Q510 1503 457 1463T403 1337V1124H1085V96Q1085 11 1098 0H942Q930 14 930 90V985Z"/><glyph unicode="ﬂ" horiz-adv-x="1290" d="M33 983V1126H248V1354Q248 1647 571 1647Q656 1647 755 1633L793 1628V1489Q697 1505 612 1505Q505 1503 453 1464T401 1343V1124H782V983H403V0H248V983H33ZM1096 0H942Q932 6 932 63V1522Q932 1610 928 1634H1079Q1085 1616 1085 1540V106Q1085 9 1096 0Z"/><glyph unicode="ﬃ" horiz-adv-x="1960" d="M1602 985H1077V0H922V985H403V0H248V983H33V1126H248V1354Q248 1647 571 1647Q653 1647 751 1633L788 1628V1487Q692 1503 610 1503Q501 1501 451 1461T401 1339V1124H922V1337Q922 1488 1005 1567T1245 1647Q1329 1647 1424 1633L1462 1628V1487Q1350 1503 1284 1503Q1178 1501 1127 1463T1075 1341V1124H1757V96Q1757 11 1772 0H1618Q1612 3 1607 27T1602 90V985Z"/><glyph unicode="ﬄ" horiz-adv-x="1962" d="M403 983V0H248V983H33V1126H248V1354Q248 1647 571 1647Q653 1647 751 1633L788 1628V1487Q692 1503 610 1503Q501 1501 451 1461T401 1339V1124H922V1337Q922 1488 1005 1567T1245 1647Q1331 1647 1429 1633L1466 1628V1487Q1362 1503 1284 1503Q1178 1501 1127 1463T1075 1341V1124H1454V983H1077V0H922V983H403ZM1767 0H1616Q1606 6 1606 63V1522Q1606 1613 1599 1634H1753Q1757 1616 1757 1540V106Q1757 10 1767 0Z"/></font>
</defs>
</svg>
